<?xml version="1.0" encoding="UTF-8"?>
<svg viewBox="0 0 177 54" version="1.1" xmlns="http://www.w3.org/2000/svg" xmlns:xlink="http://www.w3.org/1999/xlink">
    <title>DURRIE VISION</title>
    <g id="DV-Outline---Black">
        <g transform="translate(-1.041667, -1.041667)">
            <path d="M26.0416667,52.0833333 C11.6592513,52.0833333 0,40.424082 0,26.0416667 C0,11.6592513 11.6592513,0 26.0416667,0 C40.424082,0 52.0833333,11.6592513 52.0833333,26.0416667 C52.0833333,40.424082 40.424082,52.0833333 26.0416667,52.0833333 Z M26.0416667,50 C39.2734888,50 50,39.2734888 50,26.0416667 C50,12.8098445 39.2734888,2.08333333 26.0416667,2.08333333 C12.8098445,2.08333333 2.08333333,12.8098445 2.08333333,26.0416667 C2.08333333,39.2734888 12.8098445,50 26.0416667,50 Z" id="Oval" fill-rule="nonzero"></path>
            <path d="M9.81770833,35.8072917 L9.81770833,17.3177083 L16.2239583,17.3177083 C17.5580123,17.2907383 18.8833135,17.5389552 20.1171875,18.046875 C21.1833296,18.4948801 22.1387543,19.1703431 22.9166667,20.0260417 C23.6726447,20.8762938 24.2445274,21.8737636 24.5963542,22.9557292 C24.9752094,24.1112189 25.1642926,25.3204719 25.15625,26.5364583 C25.1743889,27.8350558 24.9627993,29.1266341 24.53125,30.3515625 C24.1449481,31.4397516 23.5325526,32.4337849 22.734375,33.2682292 C21.9362609,34.086776 20.9729654,34.7259546 19.9085937,35.1432292 C18.7344145,35.5991185 17.4834158,35.8245794 16.2239583,35.8072917 L9.81770833,35.8072917 Z M22.7864583,26.5364583 C22.7964212,25.5605615 22.6513868,24.5892709 22.3567708,23.6588542 C22.0952071,22.8263274 21.6603218,22.0586217 21.0807292,21.40625 C20.5043892,20.7727079 19.798245,20.270857 19.0104167,19.9348958 C18.1284842,19.5662488 17.1796942,19.3844712 16.2239583,19.4010417 L12.1614583,19.4010417 L12.1614583,33.7239583 L16.2239583,33.7239583 C17.1936146,33.741495 18.1561441,33.5551818 19.0492188,33.1770833 C19.84092,32.8366096 20.5445296,32.3200355 21.1065104,31.6666667 C21.6687429,30.9965552 22.0934921,30.2222726 22.3565104,29.3880208 C22.6499769,28.4662769 22.7951026,27.5037534 22.7864583,26.5364583 Z" id="Shape" fill-rule="nonzero"></path>
            <polygon id="Shape" fill-rule="nonzero" points="28.3072917 17.3177083 34.4270833 32.8645833 40.5208333 17.3177083 42.9947917 17.3177083 35.4427083 35.8072917 33.4114583 35.8072917 25.8333333 17.3177083"></polygon>
        </g>
    </g>
    <g id="DV-Name-Logo/black" transform="translate(63.000000, 19.000000)">
        <g id="Name">
            <path d="M0,11.5381818 L0,0.44 L3.80655949,0.44 C4.6001503,0.424771863 5.38836036,0.574542281 6.1221865,0.88 C6.75654561,1.14816217 7.32460651,1.55414751 7.78598071,2.06909091 C8.23489955,2.57881421 8.57453504,3.17679896 8.78353698,3.82545455 C9.00881514,4.51889959 9.12071995,5.24476832 9.11485531,5.97454545 C9.12946488,6.75364505 9.00754569,7.5292174 8.75472669,8.26545455 C8.52235328,8.91966076 8.15397003,9.5160549 7.67434084,10.0145455 C7.1988544,10.505104 6.62560741,10.888099 5.99254019,11.1381818 C5.29490241,11.4122981 4.55148939,11.5481072 3.8029582,11.5381818 L0,11.5381818 Z M7.70675241,5.97454545 C7.71395294,5.38865796 7.62761607,4.80542608 7.45106109,4.24727273 C7.29520826,3.75237015 7.03748151,3.29633566 6.694791,2.90909091 C6.35177615,2.52874109 5.9317221,2.22737456 5.46315113,2.02545455 C4.93841995,1.80557594 4.37461356,1.69666676 3.80655949,1.70545455 L1.39369775,1.70545455 L1.39369775,10.2872727 L3.80655949,10.2872727 C4.3836106,10.2975949 4.95643738,10.1861247 5.48836013,9.96 C5.95851104,9.75639775 6.37616036,9.44664078 6.70919614,9.05454545 C7.04290297,8.6523308 7.29497835,8.18775058 7.45106109,7.68727273 C7.6266983,7.13390233 7.71303163,6.5556056 7.70675241,5.97454545 Z" id="Shape" fill-rule="nonzero"></path>
            <path d="M15.780836,10.3490909 C16.3352565,10.3740527 16.8861671,10.2484823 17.3762058,9.98545455 C17.7869085,9.74711025 18.1351341,9.41294907 18.3917685,9.01090909 C18.6505784,8.58918782 18.8311867,8.12341132 18.9247588,7.63636364 C19.0324024,7.11487645 19.0867067,6.58360302 19.0868167,6.05090909 L19.0868167,0.44 L20.4806046,0.44 L20.4805145,6.05090909 C20.4837871,6.77040765 20.3978895,7.48749263 20.2248232,8.18545455 C20.0696483,8.82452093 19.7932528,9.42715268 19.4109325,9.96 C19.0342261,10.4747716 18.540071,10.8901627 17.970418,11.1709091 C17.2941316,11.4864569 16.5542709,11.6383606 15.8096463,11.6145455 C15.0451298,11.6406157 14.2855859,11.480992 13.5948553,11.1490909 C13.0235976,10.8560756 12.5297698,10.4297402 12.1543408,9.90545455 C11.7808888,9.36798174 11.5131453,8.76308581 11.3656592,8.12363636 C11.206464,7.4444839 11.1266909,6.74882427 11.1279743,6.05090909 L11.127959,0.44 L12.5180707,0.44 L12.5180707,6.05090909 C12.5166531,6.58969362 12.570967,7.12715444 12.6801286,7.65454545 C12.7788578,8.13950286 12.9630467,8.60261257 13.2239228,9.02181818 C13.4766637,9.41946042 13.8215228,9.74895717 14.2286817,9.98181818 C14.7050427,10.2400309 15.2404577,10.3667215 15.780836,10.3490909 Z" id="Shape" fill-rule="nonzero"></path>
            <path d="M23.1454662,11.5381818 L23.1454662,0.44 L27.848746,0.44 C28.3127887,0.434906343 28.7715753,0.539512377 29.1884244,0.745454545 C29.5922984,0.943546561 29.9533596,1.22037864 30.2508039,1.56 C30.5440622,1.89734875 30.776829,2.28373969 30.9386495,2.70181818 C31.0995296,3.11516863 31.1802218,3.55589163 31.1763344,4 C31.175101,4.36965597 31.1205077,4.7371562 31.0142765,5.09090909 C30.9118053,5.43979479 30.754988,5.76998654 30.5497106,6.06909091 C30.3529452,6.35782108 30.109459,6.61105463 29.8294534,6.81818182 C29.5414163,7.02939367 29.2163773,7.18362534 28.8715113,7.27272727 L31.5328617,11.5236364 L29.9554984,11.5236364 L27.4345981,7.52363636 L24.5355627,7.52363636 L24.5355627,11.5236364 L23.1454662,11.5381818 Z M24.5355627,6.30181818 L27.8631511,6.30181818 C28.1348597,6.30653755 28.4034485,6.24279815 28.6446302,6.11636364 C28.8772243,5.99113065 29.0809542,5.81763659 29.2424437,5.60727273 C29.4114308,5.38907852 29.5417957,5.14303248 29.6277814,4.88 C29.7216958,4.59633457 29.769136,4.29909501 29.7682315,4 C29.7701424,3.69774749 29.7151474,3.39788194 29.6061736,3.11636364 C29.5024574,2.85171861 29.3564695,2.60603542 29.1740193,2.38909091 C28.9969779,2.1813368 28.7801564,2.01187986 28.5365916,1.89090909 C28.2994838,1.77140769 28.0381219,1.70916531 27.773119,1.70909091 L24.5319614,1.70909091 L24.5355627,6.30181818 Z" id="Shape" fill-rule="nonzero"></path>
            <path d="M33.4919614,11.5381818 L33.4919614,0.44 L38.1736334,0.44 C38.6375916,0.435708758 39.0961977,0.540273632 39.5133119,0.745454545 C39.9133155,0.944760792 40.270615,1.2215233 40.5648875,1.56 C40.8568633,1.89829804 41.0894879,2.28445314 41.2527331,2.70181818 C41.4159519,3.11102744 41.5002916,3.54794103 41.5012219,3.98909091 C41.5024667,4.36727785 41.4478466,4.74353769 41.339164,5.10545455 C41.2366928,5.45434025 41.0798755,5.78453199 40.8745981,6.08363636 C40.6768458,6.37154815 40.4335072,6.62462822 40.1543408,6.83272727 C39.8675433,7.03827207 39.5450269,7.1875319 39.2036013,7.27272727 L41.8685531,11.5236364 L40.2875884,11.5236364 L37.7666881,7.52363636 L34.871254,7.52363636 L34.871254,11.5236364 L33.4919614,11.5381818 Z M34.8856592,6.30181818 L38.2132476,6.30181818 C38.4849075,6.30608066 38.753387,6.24236718 38.9947267,6.11636364 C39.2273207,5.99113065 39.4310507,5.81763659 39.5925402,5.60727273 C39.7589128,5.38736906 39.8890329,5.14178496 39.9778778,4.88 C40.0714062,4.59749129 40.1188413,4.30151168 40.118328,4.00363636 C40.1202389,3.70138386 40.0652439,3.4015183 39.9562701,3.12 C39.8499311,2.85587847 39.7028596,2.61041718 39.5205145,2.39272727 C39.3448014,2.18507014 39.1291725,2.01558782 38.8866881,1.89454545 C38.6484466,1.77462095 38.3858183,1.71237063 38.1196141,1.71272727 L34.8784566,1.71272575 L34.8856592,6.30181818 Z" id="Shape" fill-rule="nonzero"></path>
            <polygon id="Shape" fill-rule="nonzero" points="43.806045 11.5381818 43.806045 0.44 45.1997428 0.44 45.1997428 11.5381818"></polygon>
            <polygon id="Shape" fill-rule="nonzero" points="55.4598071 10.2872727 55.4598071 11.5381818 48.0123473 11.5381818 48.0123473 0.44 55.3337621 0.44 55.3337621 1.69090909 49.406045 1.69090909 49.406045 5.28727273 54.5594855 5.28727273 54.5594855 6.45818182 49.406045 6.45818182 49.406045 10.2872727"></polygon>
            <polygon id="Shape" fill-rule="nonzero" points="62.3742765 0.44 66.0115756 9.77090909 69.6344695 0.44 71.1037942 0.44 66.6237942 11.5381818 65.4173633 11.5381818 60.9049518 0.44"></polygon>
            <polygon id="Shape" fill-rule="nonzero" points="72.6883601 11.5381818 72.6883601 0.44 74.0820579 0.44 74.0820579 11.5381818"></polygon>
            <path d="M83.3697749,2.77090909 C83.2262046,2.60713581 83.0600433,2.4650741 82.8763987,2.34909091 C82.6543794,2.20768628 82.4206181,2.0860171 82.1777492,1.98545455 C81.9058754,1.87003638 81.6236896,1.78114658 81.3350482,1.72 C81.0228069,1.65086466 80.7039655,1.61671877 80.3843087,1.61818182 C79.5272026,1.61818182 78.9005788,1.77939394 78.5044373,2.10181818 C78.1069265,2.4226471 77.8848454,2.91571416 77.9066238,3.42909091 C77.8972992,3.69058925 77.955637,3.95002609 78.0758842,4.18181818 C78.206819,4.39567937 78.392106,4.57021463 78.6124759,4.68727273 C78.8975531,4.84614424 79.2012277,4.96830858 79.5163987,5.05090909 C79.8765273,5.15636364 80.3050804,5.26545455 80.8020579,5.38181818 C81.3232275,5.49443989 81.8368328,5.64018452 82.3398071,5.81818182 C82.7600127,5.95720481 83.157026,6.15948388 83.5174277,6.41818182 C83.8328451,6.63763 84.0910651,6.93080103 84.2700965,7.27272727 C84.4523356,7.6684927 84.5399202,8.10196183 84.5257878,8.53818182 C84.5388807,9.01771852 84.4323804,9.49288493 84.2160772,9.92 C84.0151523,10.31466 83.7222446,10.6540985 83.3625723,10.9090909 C82.9812013,11.1752222 82.5535962,11.3664347 82.1021222,11.4727273 C81.5841024,11.5958364 81.053311,11.655659 80.5211576,11.6509091 C79.7029278,11.655998 78.8896843,11.5220056 78.1154984,11.2545455 C77.3637268,10.9914654 76.6639182,10.5962971 76.0483601,10.0872727 L76.7073955,8.89818182 C76.9016911,9.09774877 77.1165925,9.27573316 77.3484244,9.42909091 C77.6330369,9.6160986 77.9344781,9.77559234 78.248746,9.90545455 C78.5981011,10.0515807 78.9596604,10.1659727 79.3291318,10.2472727 C79.7272103,10.3390728 80.134444,10.3842194 80.5427653,10.3818182 C81.1786095,10.4180045 81.8116152,10.2717642 82.3686174,9.96 C82.7989655,9.69050504 83.0490196,9.20505518 83.0204502,8.69454545 C83.0285454,8.41657317 82.9559394,8.1422805 82.8115756,7.90545455 C82.6528142,7.67472939 82.4432596,7.48429321 82.1993569,7.34909091 C81.8834524,7.17322255 81.5487892,7.03414958 81.2018006,6.93454545 C80.8020579,6.81454545 80.3518971,6.69454545 79.847717,6.57090909 C79.3489137,6.45389194 78.8571373,6.30820009 78.374791,6.13454545 C77.9961965,6.00058372 77.6393845,5.81063628 77.3160129,5.57090909 C77.0404527,5.36301428 76.8202117,5.08940436 76.6749839,4.77454545 C76.5213012,4.41589402 76.4498969,4.02680389 76.4661093,3.63636364 C76.4568605,3.15066066 76.557877,2.66926817 76.7614148,2.22909091 C76.9528384,1.82568335 77.2338165,1.4722841 77.582508,1.19636364 C77.9560784,0.908514195 78.3818295,0.697271194 78.8357556,0.574545455 C80.6310914,0.0472221987 82.5683712,0.44116895 84.0216077,1.62909091 L83.3697749,2.77090909 Z" id="Shape" fill-rule="nonzero"></path>
            <polygon id="Shape" fill-rule="nonzero" points="86.5857235 11.5381818 86.5857235 0.44 87.9794212 0.44 87.9794212 11.5381818"></polygon>
            <path d="M95.2972347,11.6145455 C94.5653935,11.6247932 93.8413668,11.4616393 93.1832797,11.1381818 C92.5610963,10.8308515 92.006343,10.4005324 91.5518971,9.87272727 C91.0924323,9.33734453 90.7347211,8.72097012 90.4967203,8.05454545 C90.2562888,7.38804102 90.1343721,6.68388459 90.1365916,5.97454545 C90.1349454,5.24778675 90.2693516,4.52726196 90.5327331,3.85090909 C90.7823875,3.19111349 91.1484349,2.5824843 91.613119,2.05454545 C92.0796131,1.53694026 92.6441317,1.11901012 93.2733119,0.825454545 C93.914304,0.517158332 94.6160633,0.359278485 95.326045,0.363636364 C96.0572109,0.353477963 96.7799782,0.521895011 97.4327974,0.854545455 C98.0510931,1.17581192 98.602485,1.61406188 99.0569775,2.14545455 C99.9683479,3.22219818 100.471223,4.59086531 100.475884,6.00727273 C100.478764,6.73380634 100.345578,7.45433939 100.083344,8.13090909 C99.8320666,8.78770965 99.4661429,9.39366972 99.0029582,9.92 C98.5416408,10.4374115 97.9835386,10.8575935 97.3607717,11.1563636 C96.7159557,11.4642946 96.0105009,11.6209318 95.2972347,11.6145455 Z M91.5338907,5.98909091 C91.531914,6.54513868 91.6244912,7.09740208 91.8075884,7.62181818 C91.9783331,8.13029106 92.2368058,8.60425926 92.5710611,9.02181818 C92.8973394,9.42550671 93.3032992,9.7561624 93.7630868,9.99272727 C94.2434101,10.2362189 94.7742011,10.360861 95.3116399,10.3563636 C95.8567408,10.3614461 96.3943063,10.2276217 96.8745981,9.96727273 C97.3324859,9.71832981 97.7355649,9.37812793 98.0594212,8.96727273 C98.3881427,8.54949503 98.6394621,8.07522121 98.8012862,7.56727273 C99.1516991,6.52621208 99.1516991,5.39742428 98.8012862,4.35636364 C98.631225,3.84863743 98.3686179,3.37750709 98.0270096,2.96727273 C97.6978576,2.56841841 97.2924365,2.24067506 96.8349839,2.00363636 C96.364252,1.75857305 95.8412179,1.63371995 95.3116399,1.64 C94.7640786,1.6268096 94.2219125,1.75179747 93.7342765,2.00363636 C93.2768289,2.25171177 92.8747674,2.59208933 92.5530547,3.00363636 C92.2237412,3.42006765 91.9690213,3.89139764 91.8003859,4.39636364 C91.626275,4.90908317 91.5362586,5.44707281 91.5338907,5.98909091 Z" id="Shape" fill-rule="nonzero"></path>
            <polygon id="Shape" fill-rule="nonzero" points="104.030354 3.06909091 104.030354 11.5381818 102.636656 11.5381818 102.636656 0.44 103.717042 0.44 110.530675 9.09090909 110.530675 0.458181818 111.924373 0.458181818 111.924373 11.5381818 110.746752 11.5381818"></polygon>
        </g>
    </g>
</svg>