<svg style="position: absolute; width: 0; height: 0; overflow: hidden;" version="1.1" xmlns="http://www.w3.org/2000/svg" xmlns:xlink="http://www.w3.org/1999/xlink">
<defs>
<symbol id="icon-LiftedLogic" viewBox="0 0 221 32">
<title>Lifted Logic Web Design in Kansas City</title>
<path d="M186.049 3.818h-9.095l-11.116 20.884h20.547v-6.625h-8.982z"></path>
<path d="M192.561 3.818h9.095l11.116 20.884h-20.547v-6.625h8.926z"></path>
<path d="M7.691 4.323h4.098v16.112h9.825v3.537h-13.923v-19.649z"></path>
<path d="M27.958 7.691h-3.818v-3.481h3.874l-0.056 3.481zM24.14 9.432h3.874v14.54h-3.874v-14.54z"></path>
<path d="M37.67 4.154l0.786 0.056v3.088c-0.225 0-0.561-0.056-1.067-0.056-0.393-0.056-0.786 0.056-1.011 0.337-0.168 0.225-0.281 0.505-0.281 0.786v1.235h2.47v2.695h-2.526v11.733h-3.761v-11.789h-2.133v-2.695h2.077v-0.954c0-1.572 0.281-2.639 0.786-3.2 0.561-0.898 1.909-1.291 3.986-1.291 0.281 0 0.505 0 0.674 0.056z"></path>
<path d="M40.365 12.295v-2.751h2.021v-4.042h3.761v4.042h2.358v2.695h-2.358v7.691c-0.056 0.393 0 0.786 0.225 1.123 0.449 0.225 0.898 0.281 1.404 0.225h0.786v2.807l-1.797 0.056c-1.797 0.056-3.032-0.225-3.705-0.954-0.449-0.561-0.674-1.291-0.618-2.021v-8.982h-2.077z"></path>
<path d="M60.463 9.712c1.011 0.449 1.909 1.235 2.526 2.133s1.011 1.909 1.179 3.032c0.112 0.954 0.168 1.909 0.112 2.863h-10.611c0.056 1.46 0.561 2.47 1.516 3.088 0.618 0.393 1.347 0.561 2.077 0.561 1.235 0.112 2.358-0.561 2.919-1.684h3.874c-0.168 1.011-0.674 1.909-1.404 2.639-1.291 1.404-3.144 2.133-5.502 2.133-1.853 0-3.705-0.618-5.109-1.797-1.516-1.179-2.246-3.144-2.246-5.839 0-2.526 0.674-4.435 2.021-5.782 1.404-1.347 3.256-2.077 5.221-2.021 1.123 0 2.302 0.225 3.425 0.674zM54.737 13.025c-0.561 0.618-0.898 1.403-1.011 2.246h6.568c0-0.898-0.393-1.684-1.011-2.302-0.618-0.505-1.404-0.786-2.246-0.786-0.842-0.056-1.684 0.225-2.302 0.842z"></path>
<path d="M73.881 9.656c0.674 0.393 1.291 0.954 1.684 1.628v-6.961h3.874v19.649h-3.705v-2.021c-0.449 0.786-1.067 1.404-1.853 1.853-0.786 0.393-1.684 0.618-2.582 0.561-1.684 0-3.256-0.73-4.267-2.077-1.179-1.516-1.796-3.368-1.74-5.277 0-2.47 0.561-4.435 1.74-5.839 1.123-1.403 2.807-2.189 4.603-2.133 0.73 0.056 1.516 0.225 2.246 0.618zM74.835 20.042c0.618-0.898 0.898-2.021 0.842-3.088 0-1.796-0.449-3.032-1.347-3.818-0.561-0.449-1.235-0.73-1.909-0.674-1.011-0.056-1.909 0.449-2.47 1.235-0.561 0.954-0.842 2.021-0.786 3.144-0.056 1.123 0.225 2.246 0.786 3.2 0.505 0.786 1.46 1.291 2.414 1.235 0.954 0 1.909-0.449 2.47-1.235v0z"></path>
<path d="M90.218 4.323h4.098v16.112h9.825v3.537h-13.923v-19.649z"></path>
<path d="M118.175 22.175c-1.235 1.516-3.088 2.246-5.614 2.246s-4.379-0.73-5.614-2.246c-1.235-1.572-1.909-3.481-1.853-5.502-0.056-1.965 0.618-3.93 1.853-5.446s3.088-2.302 5.614-2.302c2.526 0 4.379 0.786 5.614 2.302 1.235 1.572 1.909 3.481 1.853 5.446 0.056 2.021-0.618 3.986-1.853 5.502zM115.144 20.098c0.674-1.011 0.954-2.189 0.898-3.368 0.056-1.179-0.225-2.358-0.898-3.368-1.179-1.403-3.312-1.572-4.772-0.393-0.112 0.112-0.281 0.225-0.393 0.393-0.674 1.011-0.954 2.189-0.898 3.368-0.056 1.179 0.225 2.358 0.898 3.368 1.179 1.404 3.312 1.572 4.772 0.393 0.168-0.112 0.281-0.225 0.393-0.393z"></path>
<path d="M129.965 9.432c0.954 0.449 1.74 1.179 2.246 2.133v-2.077h3.705v13.811c0 1.853-0.337 3.312-0.954 4.267-1.067 1.628-3.144 2.47-6.232 2.47-1.572 0.056-3.144-0.337-4.547-1.123-1.179-0.674-1.909-1.909-1.965-3.256h4.098c0.056 0.393 0.225 0.73 0.505 0.954 0.618 0.393 1.347 0.561 2.077 0.505 1.347 0 2.302-0.449 2.751-1.404 0.393-0.954 0.505-1.965 0.449-2.975v-0.954c-0.281 0.561-0.674 1.011-1.179 1.404-0.842 0.618-1.909 0.898-2.919 0.842-1.74 0.056-3.368-0.674-4.491-1.965s-1.684-3.088-1.684-5.333c-0.056-1.965 0.505-3.874 1.628-5.446 1.067-1.46 2.751-2.302 4.547-2.189 0.674 0 1.347 0.112 1.965 0.337zM131.256 19.874c0.618-0.674 0.898-1.74 0.898-3.2 0.056-1.123-0.225-2.246-0.898-3.2-0.561-0.73-1.404-1.123-2.302-1.067-1.235-0.056-2.358 0.73-2.751 1.909-0.281 0.786-0.449 1.628-0.393 2.47 0 0.786 0.112 1.516 0.449 2.246 0.393 1.179 1.516 1.909 2.751 1.853 0.842-0.056 1.684-0.393 2.246-1.011z"></path>
<path d="M142.26 7.691h-3.874v-3.481h3.874v3.481zM138.386 9.432h3.874v14.54h-3.874v-14.54z"></path>
<path d="M154.105 14.653c-0.056-0.505-0.281-1.011-0.561-1.46-0.449-0.618-1.179-0.954-1.965-0.898-1.235-0.056-2.302 0.73-2.639 1.909-0.281 0.842-0.393 1.796-0.393 2.695-0.056 0.898 0.112 1.74 0.393 2.582 0.337 1.123 1.404 1.853 2.582 1.797 0.73 0.056 1.404-0.168 1.909-0.73 0.393-0.561 0.618-1.179 0.674-1.853h3.874c-0.112 1.179-0.561 2.302-1.235 3.256-1.179 1.684-2.975 2.47-5.333 2.47s-4.042-0.674-5.165-2.077c-1.179-1.572-1.74-3.481-1.684-5.389 0-2.47 0.618-4.435 1.853-5.839 1.291-1.403 3.144-2.189 5.053-2.077 1.572-0.056 3.144 0.337 4.491 1.235 1.179 0.842 1.853 2.246 2.077 4.323l-3.93 0.056z"></path>
</symbol>
<symbol id="icon-dv" viewBox="0 0 54 54">
  <title>DV</title>
  <g fill="#000000">
    <path d="M26.0416667,52.0833333 C11.6592513,52.0833333 0,40.424082 0,26.0416667 C0,11.6592513 11.6592513,0 26.0416667,0 C40.424082,0 52.0833333,11.6592513 52.0833333,26.0416667 C52.0833333,40.424082 40.424082,52.0833333 26.0416667,52.0833333 Z M26.0416667,50 C39.2734888,50 50,39.2734888 50,26.0416667 C50,12.8098445 39.2734888,2.08333333 26.0416667,2.08333333 C12.8098445,2.08333333 2.08333333,12.8098445 2.08333333,26.0416667 C2.08333333,39.2734888 12.8098445,50 26.0416667,50 Z" fill-rule="nonzero"></path>
    <path d="M9.81770833,35.8072917 L9.81770833,17.3177083 L16.2239583,17.3177083 C17.5580123,17.2907383 18.8833135,17.5389552 20.1171875,18.046875 C21.1833296,18.4948801 22.1387543,19.1703431 22.9166667,20.0260417 C23.6726447,20.8762938 24.2445274,21.8737636 24.5963542,22.9557292 C24.9752094,24.1112189 25.1642926,25.3204719 25.15625,26.5364583 C25.1743889,27.8350558 24.9627993,29.1266341 24.53125,30.3515625 C24.1449481,31.4397516 23.5325526,32.4337849 22.734375,33.2682292 C21.9362609,34.086776 20.9729654,34.7259546 19.9085937,35.1432292 C18.7344145,35.5991185 17.4834158,35.8245794 16.2239583,35.8072917 L9.81770833,35.8072917 Z M22.7864583,26.5364583 C22.7964212,25.5605615 22.6513868,24.5892709 22.3567708,23.6588542 C22.0952071,22.8263274 21.6603218,22.0586217 21.0807292,21.40625 C20.5043892,20.7727079 19.798245,20.270857 19.0104167,19.9348958 C18.1284842,19.5662488 17.1796942,19.3844712 16.2239583,19.4010417 L12.1614583,19.4010417 L12.1614583,33.7239583 L16.2239583,33.7239583 C17.1936146,33.741495 18.1561441,33.5551818 19.0492188,33.1770833 C19.84092,32.8366096 20.5445296,32.3200355 21.1065104,31.6666667 C21.6687429,30.9965552 22.0934921,30.2222726 22.3565104,29.3880208 C22.6499769,28.4662769 22.7951026,27.5037534 22.7864583,26.5364583 Z" id="Shape" fill-rule="nonzero"></path>
    <polygon fill-rule="nonzero" points="28.3072917 17.3177083 34.4270833 32.8645833 40.5208333 17.3177083 42.9947917 17.3177083 35.4427083 35.8072917 33.4114583 35.8072917 25.8333333 17.3177083"></polygon>
  </g>
</symbol>
<symbol id="icon-location" viewBox="0 0 24 24">
<title>Location</title>
<g class="path1" fill-rule="evenodd" transform="translate(6, 4)">
  <path class="path1" d="M5.78,0 C2.58779415,5.13345854e-16 6.03961325e-16,2.58779415 0,5.78 C0,9.164292 3.388712,14.549688 4.976512,16.603832 C5.16860043,16.8534107 5.46560864,16.9997498 5.78054904,16.9999894 C6.09548944,17.000229 6.39272,16.8543422 6.585188,16.605056 C8.17394,14.556284 11.56,9.184692 11.56,5.78 C11.56,4.24704869 10.9510375,2.77688307 9.8670772,1.6929228 C8.78311693,0.608962537 7.31295131,-2.46517372e-16 5.78,0 Z M5.78,7.48 C4.4655623,7.48 3.4,6.4144377 3.4,5.1 C3.4,3.7855623 4.4655623,2.72 5.78,2.72 C7.0944377,2.72 8.16,3.7855623 8.16,5.1 C8.16,6.4144377 7.0944377,7.48 5.78,7.48 Z"></path>
</g>
</symbol>
<symbol id="icon-clock" viewBox="0 0 100 100">
<title>Clock</title>
<path d="M50,0 C22.4300124,0 0,22.4300124 0,50 C0,77.5699876 22.4300124,100 50,100 C77.5699876,100 100,77.5699876 100,50 C100,22.4300124 77.5699876,0 50,0 Z M50,91.3470907 C27.2014198,91.3470907 8.65182812,72.7996613 8.65182812,50 C8.65182812,27.2003387 27.2014198,8.65290929 50,8.65290929 C72.7985802,8.65290929 91.3481719,27.2003387 91.3481719,50 C91.3481719,72.7996613 72.7985802,91.3470907 50,91.3470907 Z"></path>
<path d="M72.7256247,51.6339869 L51.2154174,51.6339869 L51.2154174,24.1830065 C51.2154174,21.8729412 49.4508158,20 47.2743753,20 C45.0979349,20 43.3333333,21.8729412 43.3333333,24.1830065 L43.3333333,55.8169935 C43.3333333,58.1270588 45.0979349,60 47.2743753,60 L72.7256247,60 C74.9020651,60 76.6666667,58.1270588 76.6666667,55.8169935 C76.6666667,53.5069281 74.9020651,51.6339869 72.7256247,51.6339869 Z"></path>
</symbol>
<symbol id="icon-clock-ticking" viewBox="0 0 100 100">
<title>Clock Ticking</title>
<path d="M53.094347,48.579922 L53.0925926,22.808577 C53.0925926,21.045809 51.6619883,19.6150097 49.8990253,19.6150097 C48.1360624,19.6150097 46.7054581,21.0440546 46.7054581,22.808577 L46.7072125,49.9033138 C46.7072125,50.7510721 47.0446394,51.5623782 47.6430799,52.1608187 L64.3614035,68.8791423 C64.9859649,69.5019493 65.8025341,69.8150097 66.6206628,69.8150097 C67.437232,69.8150097 68.2538012,69.5037037 68.8766082,68.8791423 C70.1239766,67.6335283 70.1239766,65.611306 68.8766082,64.3639376 L53.094347,48.579922 Z"></path>
<path d="M96.611501,46.7099415 L88.337037,46.7099415 C86.5725146,46.7099415 85.1401559,48.1405458 85.1401559,49.9035088 C85.1401559,51.6662768 86.5707602,53.097076 88.3354776,53.097076 L93.3021442,53.097076 C91.7389864,74.5528265 74.5518519,91.7397661 53.0961014,93.3031189 L53.0961014,88.3364522 C53.0961014,86.5719298 51.6654971,85.142885 49.9025341,85.142885 C48.1395712,85.142885 46.7089669,86.5719298 46.7089669,88.3364522 L46.7089669,93.3015595 C25.2545809,91.7380117 8.06822612,74.5530214 6.50467836,53.097076 L11.4697856,53.097076 C13.234308,53.097076 14.6633528,51.6664717 14.6633528,49.9035088 C14.6633528,48.1407407 13.234308,46.7099415 11.4697856,46.7099415 L6.50467836,46.7099415 C8.06842105,25.2555556 25.2547758,8.06920078 46.7089669,6.50565302 L46.7089669,11.4690058 C46.7089669,13.2335283 48.1395712,14.6643275 49.9025341,14.6643275 C51.6670565,14.6643275 53.0961014,13.2337232 53.0961014,11.4690058 L53.0961014,6.50311891 C60.634308,7.04580897 67.7906433,9.50643275 73.9974659,13.6489279 L69.4044834,13.631384 C69.4009747,13.631384 69.3976608,13.631384 69.394152,13.631384 C67.6331384,13.631384 66.205848,15.0534113 66.1988304,16.8128655 C66.1920078,18.5773879 67.6155945,20.011501 69.3803119,20.0185185 L82.9189084,20.068616 C82.9241715,20.068616 82.9274854,20.068616 82.9327485,20.068616 C82.9658869,20.068616 82.9982456,20.0641326 83.0309942,20.062963 C83.1072125,20.0606238 83.1834308,20.0576998 83.2594542,20.0499025 C83.3099415,20.0446394 83.3594542,20.0358674 83.4093567,20.0282651 C83.4701754,20.0191033 83.5309942,20.0097466 83.591423,19.997076 C83.6417154,19.9865497 83.6910331,19.9736842 83.7405458,19.9606238 C83.8,19.9450292 83.8588694,19.9282651 83.9175439,19.9093567 C83.9653021,19.8937622 84.0124756,19.8773879 84.0592593,19.8596491 C84.1179337,19.8376218 84.1756335,19.8130604 84.2331384,19.7873294 C84.2783626,19.7670565 84.3233918,19.7471735 84.3674464,19.7249513 C84.4231969,19.6968811 84.4775828,19.6654971 84.5321637,19.6337232 C84.5760234,19.6083821 84.620078,19.5840156 84.6625731,19.5565302 C84.7116959,19.5247563 84.7588694,19.4890838 84.8066277,19.454386 C84.851462,19.4218324 84.897271,19.3908382 84.9405458,19.3557505 C84.9768031,19.3263158 85.0107212,19.2927875 85.0460039,19.2614035 C85.1222222,19.1937622 85.1955166,19.1230019 85.2654971,19.0477583 C85.3183236,18.9912281 85.3711501,18.9348928 85.4191033,18.8754386 C85.4222222,18.87154 85.425731,18.8684211 85.4288499,18.8645224 C85.4454191,18.8438596 85.4584795,18.8212476 85.474269,18.8003899 C85.5261209,18.7321637 85.5764133,18.6633528 85.6220273,18.5920078 C85.6421053,18.5606238 85.6596491,18.5282651 85.6785575,18.4964912 C85.7181287,18.4294347 85.7563353,18.3619883 85.7906433,18.2929825 C85.8083821,18.257115 85.8245614,18.2208577 85.8409357,18.1846004 C85.8711501,18.1173489 85.8992203,18.0497076 85.9247563,17.9810916 C85.9391813,17.9419103 85.9532164,17.902729 85.9660819,17.862963 C85.9883041,17.7947368 86.0074074,17.7261209 86.0247563,17.6569201 C86.0350877,17.6161793 86.0460039,17.5756335 86.0545809,17.5346979 C86.0701754,17.4610136 86.0814815,17.3869396 86.0916179,17.3126706 C86.0966862,17.2760234 86.1037037,17.2397661 86.1074074,17.202924 C86.1187135,17.0923977 86.1251462,16.9814815 86.1251462,16.8705653 C86.1251462,16.8602339 86.1237817,16.8499025 86.1235867,16.8395712 C86.1224172,16.7360624 86.1161793,16.6327485 86.1050682,16.5298246 C86.1019493,16.5021442 86.0968811,16.4744639 86.0931774,16.4467836 C86.0812865,16.3582846 86.0662768,16.2703704 86.0469786,16.1830409 C86.0444444,16.1717349 86.0436647,16.1602339 86.0409357,16.1489279 L82.9530214,2.96842105 C82.5499025,1.25048733 80.8304094,0.183235867 79.11423,0.58791423 C77.3980507,0.989278752 76.3323587,2.70721248 76.7337232,4.42495127 L77.6701754,8.4214425 C69.5253411,2.94405458 59.9413255,0.000779727096 49.9025341,0.000779727096 C22.38577,0.000779727096 0,22.3865497 0,49.9033138 C0,77.420078 22.38577,99.805848 49.9025341,99.805848 C77.4192982,99.805848 99.8050682,77.420078 99.8068226,49.9033138 C99.8068226,48.1405458 98.3760234,46.7099415 96.611501,46.7099415 Z"></path>
<path d="M88.8664717,38.8748538 C88.8664717,40.0165692 89.3335283,41.1237817 90.1294347,41.9368421 C90.9424951,42.7325536 92.0497076,43.1998051 93.191423,43.1998051 C94.3331384,43.1998051 95.4421053,42.7327485 96.2534113,41.9368421 C97.0473684,41.1237817 97.5146199,39.9992203 97.5146199,38.8748538 C97.5146199,37.7331384 97.0493177,36.6259259 96.2534113,35.8128655 C94.642885,34.2040936 91.7382066,34.2040936 90.1292398,35.8128655 C89.3352827,36.608577 88.8664717,37.7331384 88.8664717,38.8748538 Z"></path>
<path d="M83.9033138,27.0592593 C83.9033138,28.2009747 84.368616,29.3081871 85.1645224,30.1212476 C85.9775828,30.9169591 87.0865497,31.3842105 88.2282651,31.3842105 C89.3682261,31.3842105 90.4754386,30.917154 91.288499,30.1212476 C92.0824561,29.3081871 92.551462,28.2009747 92.551462,27.0592593 C92.551462,25.9175439 92.0844055,24.7929825 91.288499,23.997271 C89.6795322,22.388499 86.7732943,22.388499 85.1643275,23.997271 C84.3703704,24.7929825 83.9033138,25.9175439 83.9033138,27.0592593 Z"></path>
</symbol>
<symbol id="icon-coin" viewBox="0 0 100 100">
<title>Coin</title>
 <path d="M49.9422535,0 C22.4042254,0 0,22.4042254 0,49.9422535 C0,77.4802817 22.4042254,99.884507 49.9422535,99.884507 C77.4802817,99.884507 99.884507,77.4802817 99.884507,49.9422535 C99.884507,22.4042254 77.4807512,0 49.9422535,0 Z M49.9422535,93.3122066 C26.028169,93.3122066 6.57276995,73.856338 6.57276995,49.9422535 C6.57276995,26.028169 26.028169,6.57276995 49.9422535,6.57276995 C73.856338,6.57276995 93.3117371,26.028169 93.3117371,49.9422535 C93.3117371,73.856338 73.856338,93.3122066 49.9422535,93.3122066 Z"></path>
<path d="M53.2286385,46.9934272 L53.2286385,28.3342723 C55.0882629,29.0248826 56.7107981,30.2920188 57.8389671,32.0056338 C58.8375587,33.5215962 60.8755869,33.9413146 62.3910798,32.9431925 C63.9070423,31.9450704 64.3267606,29.9070423 63.328169,28.3910798 C60.9671362,24.8061033 57.329108,22.3723005 53.2286385,21.514554 L53.2286385,16.2938967 C53.2286385,14.4788732 51.757277,13.0075117 49.9422535,13.0075117 C48.12723,13.0075117 46.6558685,14.4788732 46.6558685,16.2938967 L46.6558685,21.5046948 C39.3821596,23.0211268 33.900939,29.4807512 33.900939,37.1976526 C33.900939,44.914554 39.3826291,51.3751174 46.6558685,52.8915493 L46.6558685,71.5507042 C44.7962441,70.8600939 43.1737089,69.5929577 42.0455399,67.8793427 C41.0469484,66.3633803 39.0089202,65.9431925 37.4934272,66.941784 C35.9774648,67.9399061 35.5577465,69.9779343 36.556338,71.4938967 C38.9173709,75.0788732 42.5553991,77.5126761 46.6558685,78.3704225 L46.6558685,83.5906103 C46.6558685,85.4056338 48.12723,86.8769953 49.9422535,86.8769953 C51.757277,86.8769953 53.2286385,85.4056338 53.2286385,83.5906103 L53.2286385,78.3802817 C60.5023474,76.8638498 65.9835681,70.4042254 65.9835681,62.6873239 C65.9835681,54.9704225 60.5023474,48.5098592 53.2286385,46.9934272 Z M40.4737089,37.1976526 C40.4737089,33.1352113 43.0530516,29.6732394 46.6558685,28.3366197 L46.6558685,46.0586854 C43.0530516,44.7220657 40.4737089,41.2600939 40.4737089,37.1976526 Z M53.2286385,71.5478873 L53.2286385,53.8258216 C56.8314554,55.1624413 59.4107981,58.6244131 59.4107981,62.6868545 C59.4107981,66.7492958 56.8319249,70.2112676 53.2286385,71.5478873 Z"></path>
</symbol>
<symbol id="icon-shield" viewBox="0 0 100 100">
<title>Shield w/Checkmark</title>
<path d="M54.7070229,41.0580913 L37.8663074,57.9045643 L31.8932457,51.9087137 C30.7940364,50.8091286 29.0311537,50.8091286 27.9319444,51.9087137 C26.8327351,53.0082988 26.8327351,54.7717842 27.9319444,55.8713693 L35.8960266,63.8381743 C36.4352613,64.3775934 37.1611543,64.6680498 37.8663074,64.6680498 C38.5714605,64.6680498 39.2973534,64.3983402 39.8365881,63.8381743 L58.6475844,45.0207469 C59.7467937,43.9211618 59.7467937,42.1576763 58.6475844,41.0580913 C57.5691149,39.9585062 55.8062321,39.9585062 54.7070229,41.0580913 Z"></path>
<path d="M86.5633517,33.2365145 C86.5633517,28.7966805 86.5633517,24.3775934 86.5633517,19.9377593 C86.5633517,17.9253112 85.7752394,15.4149378 82.0628157,14.9377593 C81.2747034,14.8340249 80.4865911,14.7510373 79.7192186,14.6473029 C77.3134021,14.3775934 75.0527642,14.1078838 72.8543456,13.6099585 C64.2680695,11.7219917 56.0343699,7.88381743 46.908859,1.53526971 C45.685211,0.684647303 44.7104405,0 43.3208741,0 C41.9313077,0 40.9150576,0.705394191 39.7536289,1.51452282 C27.558628,9.93775934 16.5250558,14.2116183 5.05594782,14.9170124 C1.55092205,15.1452282 0.0369168394,16.7634855 0.0369168394,20.3319502 C0.0369168394,23.2157676 0.0369168394,26.0995851 0.0369168394,28.9834025 C0.016177042,36.9709544 0.016177042,45.2489627 0.0991362318,53.3817427 C0.119876029,56.2448133 0.493192383,59.2116183 1.1776057,62.219917 C2.7745701,69.2116183 6.44551425,75.5394191 12.3978361,81.5352697 C19.9678622,89.1701245 29.4666894,95.0829876 41.4542923,99.6058091 C41.9935271,99.813278 42.615721,99.9170124 43.2586547,99.9170124 C44.046767,99.9170124 44.8763589,99.7510373 45.5607722,99.439834 C46.2659253,99.1286307 46.9710784,98.8381743 47.6762316,98.526971 C50.6212828,97.2614108 53.6492932,95.9543568 56.5736047,94.4190871 C66.2590901,89.2946058 73.5594988,83.2780083 78.9103665,76.0165975 C83.6183005,69.626556 86.0448568,63.2157676 86.3559538,56.4315353 C86.4181732,55.0829876 86.4596528,53.6514523 86.4803926,52.0539419 C86.4803926,52.033195 86.4803926,51.9917012 86.4803926,51.9709544 L86.5840915,38.4647303 C86.5840915,38.4024896 86.5840915,38.340249 86.5840915,38.2987552 L86.5840915,38.0290456 L86.5633517,33.2365145 Z M80.9636064,37.7593361 L80.9636064,37.780083 L80.9636064,38.153527 C80.9636064,38.1950207 80.9636064,38.2365145 80.9636064,38.2780083 L80.8599075,51.4522822 L80.8599075,51.8672199 C80.8599075,51.8879668 80.8599075,51.9087137 80.8599075,51.9294606 C80.8391677,53.5062241 80.7976881,54.8962656 80.7562085,56.2033195 C80.5073309,61.8257261 78.4333512,67.219917 74.4098305,72.6970954 C69.5567179,79.2738589 62.8785031,84.7717842 53.9603902,89.4813278 C51.2434767,90.9128631 48.2984255,92.1784232 45.477813,93.4024896 C44.7726599,93.7136929 44.0675068,94.0041494 43.3623537,94.3153527 C43.3416139,94.3153527 43.3208741,94.3153527 43.3001343,94.3153527 C32.1421233,90.0829876 23.3277094,84.626556 16.3798772,77.593361 C11.1949279,72.3443983 8.00099906,66.9087137 6.65291222,60.9543568 C6.0514581,58.340249 5.74036113,55.7676349 5.71962134,53.3195021 C5.63666215,45.2074689 5.65740195,36.9709544 5.65740195,28.9834025 C5.65740195,26.1410788 5.65740195,23.3195021 5.65740195,20.4771784 C18.1012804,19.6473029 29.9437047,15.0829876 42.9268179,6.12033195 C43.0305169,6.0373444 43.1756955,5.95435685 43.3208741,5.85062241 C43.4453129,5.93360996 43.5904915,6.0373444 43.7149302,6.12033195 C53.3174565,12.8215768 62.4637071,17.0539419 71.6514374,19.0871369 C74.1402131,19.626556 76.6497286,19.9170124 79.0762849,20.2074689 C79.7192186,20.2904564 80.3414125,20.3526971 80.9636064,20.4356846 C80.9636064,24.626556 80.9636064,28.8381743 80.9636064,33.0290456 L80.9636064,37.7593361 Z"></path>
</symbol>
<symbol id="icon-phone" viewBox="0 0 32 32">
<title>phone</title>
<path class="path1" d="M31.985 25.248c0.068 0.52-0.090 0.971-0.474 1.355l-4.506 4.471c-0.203 0.226-0.469 0.418-0.796 0.576s-0.649 0.26-0.965 0.305c-0.023 0-0.090 0.006-0.203 0.017s-0.26 0.017-0.44 0.017c-0.429 0-1.124-0.073-2.084-0.22s-2.134-0.508-3.523-1.084c-1.389-0.576-2.964-1.44-4.726-2.592s-3.636-2.733-5.623-4.743c-1.581-1.558-2.891-3.049-3.93-4.472s-1.874-2.738-2.507-3.947c-0.632-1.208-1.107-2.304-1.423-3.286s-0.531-1.829-0.644-2.541-0.158-1.27-0.136-1.677c0.023-0.407 0.034-0.632 0.034-0.678 0.045-0.316 0.147-0.638 0.305-0.965s0.35-0.593 0.576-0.796l4.506-4.506c0.316-0.316 0.678-0.474 1.084-0.474 0.294 0 0.553 0.085 0.779 0.254s0.418 0.378 0.576 0.627l3.625 6.877c0.203 0.361 0.26 0.757 0.169 1.186s-0.282 0.79-0.576 1.084l-1.66 1.66c-0.045 0.045-0.085 0.119-0.119 0.22s-0.051 0.186-0.051 0.254c0.090 0.474 0.294 1.016 0.61 1.626 0.271 0.542 0.689 1.203 1.253 1.982s1.366 1.677 2.405 2.693c1.016 1.039 1.92 1.846 2.71 2.422s1.451 0.999 1.982 1.27 0.937 0.435 1.22 0.491l0.423 0.085c0.045 0 0.119-0.017 0.22-0.051s0.175-0.073 0.22-0.119l1.931-1.965c0.407-0.361 0.881-0.542 1.423-0.542 0.384 0 0.689 0.068 0.915 0.203h0.034l6.538 3.862c0.474 0.294 0.757 0.666 0.847 1.118z"></path>
</symbol>
<symbol id="icon-play" viewBox="0 0 60 60">
<title>play</title>
<path d="M30,0C13.458,0,0,13.458,0,30s13.458,30,30,30s30-13.458,30-30S46.542,0,30,0z M45.563,30.826l-22,15
  C23.394,45.941,23.197,46,23,46c-0.16,0-0.321-0.038-0.467-0.116C22.205,45.711,22,45.371,22,45V15c0-0.371,0.205-0.711,0.533-0.884
  c0.328-0.174,0.724-0.15,1.031,0.058l22,15C45.836,29.36,46,29.669,46,30S45.836,30.64,45.563,30.826z"></path>
</symbol>
<symbol id="icon-chevron-down" viewBox="0 0 32 32">
<title>chevron-down</title>
<path class="path1" d="M9.875 10.437l6.125 6.125 6.125-6.125 1.875 1.875-8 8-8-8z"></path>
</symbol>
<symbol id="icon-chevron-left" viewBox="0 0 32 32">
<title>chevron-left</title>
<path class="path1" d="M20.563 21.437l-1.875 1.875-8-8 8-8 1.875 1.875-6.125 6.125z"></path>
</symbol>
<symbol id="icon-chevron-right" viewBox="0 0 32 32">
<title>chevron-right</title>
<path class="path1" d="M11.437 21.812l6.125-6.125-6.125-6.125 1.875-1.875 8 8-8 8z"></path>
</symbol>
<symbol id="icon-chevron-up" viewBox="0 0 32 32">
<title>chevron-up</title>
<path class="path1" d="M9.875 20.563l-1.875-1.875 8-8 8 8-1.875 1.875-6.125-6.125z"></path>
</symbol>
<symbol id="icon-facebook" viewBox="0 0 19 32">
<title>Facebook</title>
<g transform="translate(0, 2)">
<path class="path1" d="M17.125 0.214v4.714h-2.804q-1.536 0-2.071 0.643t-0.536 1.929v3.375h5.232l-0.696 5.286h-4.536v13.554h-5.464v-13.554h-4.554v-5.286h4.554v-3.893q0-3.321 1.857-5.152t4.946-1.83q2.625 0 4.071 0.214z"></path>
</g>
</symbol>
<symbol id="icon-instagram" viewBox="0 0 27 32">
<title>instagram</title>
<path class="path1" d="M18.286 16q0-1.893-1.339-3.232t-3.232-1.339-3.232 1.339-1.339 3.232 1.339 3.232 3.232 1.339 3.232-1.339 1.339-3.232zM20.75 16q0 2.929-2.054 4.982t-4.982 2.054-4.982-2.054-2.054-4.982 2.054-4.982 4.982-2.054 4.982 2.054 2.054 4.982zM22.679 8.679q0 0.679-0.482 1.161t-1.161 0.482-1.161-0.482-0.482-1.161 0.482-1.161 1.161-0.482 1.161 0.482 0.482 1.161zM13.714 4.75q-0.125 0-1.366-0.009t-1.884 0-1.723 0.054-1.839 0.179-1.277 0.33q-0.893 0.357-1.571 1.036t-1.036 1.571q-0.196 0.518-0.33 1.277t-0.179 1.839-0.054 1.723 0 1.884 0.009 1.366-0.009 1.366 0 1.884 0.054 1.723 0.179 1.839 0.33 1.277q0.357 0.893 1.036 1.571t1.571 1.036q0.518 0.196 1.277 0.33t1.839 0.179 1.723 0.054 1.884 0 1.366-0.009 1.366 0.009 1.884 0 1.723-0.054 1.839-0.179 1.277-0.33q0.893-0.357 1.571-1.036t1.036-1.571q0.196-0.518 0.33-1.277t0.179-1.839 0.054-1.723 0-1.884-0.009-1.366 0.009-1.366 0-1.884-0.054-1.723-0.179-1.839-0.33-1.277q-0.357-0.893-1.036-1.571t-1.571-1.036q-0.518-0.196-1.277-0.33t-1.839-0.179-1.723-0.054-1.884 0-1.366 0.009zM27.429 16q0 4.089-0.089 5.661-0.179 3.714-2.214 5.75t-5.75 2.214q-1.571 0.089-5.661 0.089t-5.661-0.089q-3.714-0.179-5.75-2.214t-2.214-5.75q-0.089-1.571-0.089-5.661t0.089-5.661q0.179-3.714 2.214-5.75t5.75-2.214q1.571-0.089 5.661-0.089t5.661 0.089q3.714 0.179 5.75 2.214t2.214 5.75q0.089 1.571 0.089 5.661z"></path>
</symbol>
<symbol id="icon-google_plus" viewBox="0 0 36 28">
<title>google plus</title>
<path d="M22.453 14.266c0 6.547-4.391 11.188-11 11.188-6.328 0-11.453-5.125-11.453-11.453s5.125-11.453 11.453-11.453c3.094 0 5.672 1.125 7.672 3l-3.109 2.984c-0.844-0.812-2.328-1.766-4.562-1.766-3.906 0-7.094 3.234-7.094 7.234s3.187 7.234 7.094 7.234c4.531 0 6.234-3.266 6.5-4.937h-6.5v-3.938h10.813c0.109 0.578 0.187 1.156 0.187 1.906zM36 12.359v3.281h-3.266v3.266h-3.281v-3.266h-3.266v-3.281h3.266v-3.266h3.281v3.266h3.266z"></path>
</symbol>
<symbol id="icon-pinterest" viewBox="0 0 23 32">
<title>pinterest</title>
<path class="path1" d="M0 10.661q0-1.929 0.67-3.634t1.848-2.973 2.714-2.196 3.304-1.393 3.607-0.464q2.821 0 5.25 1.188t3.946 3.455 1.518 5.125q0 1.714-0.339 3.357t-1.071 3.161-1.786 2.67-2.589 1.839-3.375 0.688q-1.214 0-2.411-0.571t-1.714-1.571q-0.179 0.696-0.5 2.009t-0.42 1.696-0.366 1.268-0.464 1.268-0.571 1.116-0.821 1.384-1.107 1.545l-0.25 0.089-0.161-0.179q-0.268-2.804-0.268-3.357 0-1.643 0.384-3.688t1.188-5.134 0.929-3.625q-0.571-1.161-0.571-3.018 0-1.482 0.929-2.786t2.357-1.304q1.089 0 1.696 0.723t0.607 1.83q0 1.179-0.786 3.411t-0.786 3.339q0 1.125 0.804 1.866t1.946 0.741q0.982 0 1.821-0.446t1.402-1.214 1-1.696 0.679-1.973 0.357-1.982 0.116-1.777q0-3.089-1.955-4.813t-5.098-1.723q-3.571 0-5.964 2.313t-2.393 5.866q0 0.786 0.223 1.518t0.482 1.161 0.482 0.813 0.223 0.545q0 0.5-0.268 1.304t-0.661 0.804q-0.036 0-0.304-0.054-0.911-0.268-1.616-1t-1.089-1.688-0.58-1.929-0.196-1.902z"></path>
</symbol>
<symbol id="icon-twitter" viewBox="0 0 30 32">
<title>Twitter</title>
<path class="path1" d="M28.929 7.286q-1.196 1.75-2.893 2.982 0.018 0.25 0.018 0.75 0 2.321-0.679 4.634t-2.063 4.437-3.295 3.759-4.607 2.607-5.768 0.973q-4.839 0-8.857-2.589 0.625 0.071 1.393 0.071 4.018 0 7.161-2.464-1.875-0.036-3.357-1.152t-2.036-2.848q0.589 0.089 1.089 0.089 0.768 0 1.518-0.196-2-0.411-3.313-1.991t-1.313-3.67v-0.071q1.214 0.679 2.607 0.732-1.179-0.786-1.875-2.054t-0.696-2.75q0-1.571 0.786-2.911 2.161 2.661 5.259 4.259t6.634 1.777q-0.143-0.679-0.143-1.321 0-2.393 1.688-4.080t4.080-1.688q2.5 0 4.214 1.821 1.946-0.375 3.661-1.393-0.661 2.054-2.536 3.179 1.661-0.179 3.321-0.893z"></path>
</symbol>
<symbol id="icon-linkedin" viewBox="0 0 48 48">
<title>LinkedIn</title>
<g class="path1" transform="translate(8, 6)" fill-rule="evenodd">
<path d="M12 12h5.535v2.837h0.079c0.77-1.381 2.655-2.837 5.464-2.837 5.842 0 6.922 3.637 6.922 8.367v9.633h-5.769v-8.54c0-2.037-0.042-4.657-3.001-4.657-3.005 0-3.463 2.218-3.463 4.509v8.688h-5.767v-18z"></path>
<path d="M2 12h6v18h-6v-18z"></path>
<path d="M8 7c0 1.657-1.343 3-3 3s-3-1.343-3-3c0-1.657 1.343-3 3-3s3 1.343 3 3z"></path>
</g>
</symbol>
<symbol id="icon-youtube" viewBox="0 0 27 32">
<title>youtube</title>
<path class="path1" d="M17.339 22.214v3.768q0 1.196-0.696 1.196-0.411 0-0.804-0.393v-5.375q0.393-0.393 0.804-0.393 0.696 0 0.696 1.196zM23.375 22.232v0.821h-1.607v-0.821q0-1.214 0.804-1.214t0.804 1.214zM6.125 18.339h1.911v-1.679h-5.571v1.679h1.875v10.161h1.786v-10.161zM11.268 28.5h1.589v-8.821h-1.589v6.75q-0.536 0.75-1.018 0.75-0.321 0-0.375-0.375-0.018-0.054-0.018-0.625v-6.5h-1.589v6.982q0 0.875 0.143 1.304 0.214 0.661 1.036 0.661 0.857 0 1.821-1.089v0.964zM18.929 25.857v-3.518q0-1.304-0.161-1.768-0.304-1-1.268-1-0.893 0-1.661 0.964v-3.875h-1.589v11.839h1.589v-0.857q0.804 0.982 1.661 0.982 0.964 0 1.268-0.982 0.161-0.482 0.161-1.786zM24.964 25.679v-0.232h-1.625q0 0.911-0.036 1.089-0.125 0.643-0.714 0.643-0.821 0-0.821-1.232v-1.554h3.196v-1.839q0-1.411-0.482-2.071-0.696-0.911-1.893-0.911-1.214 0-1.911 0.911-0.5 0.661-0.5 2.071v3.089q0 1.411 0.518 2.071 0.696 0.911 1.929 0.911 1.286 0 1.929-0.946 0.321-0.482 0.375-0.964 0.036-0.161 0.036-1.036zM14.107 9.375v-3.75q0-1.232-0.768-1.232t-0.768 1.232v3.75q0 1.25 0.768 1.25t0.768-1.25zM26.946 22.786q0 4.179-0.464 6.25-0.25 1.054-1.036 1.768t-1.821 0.821q-3.286 0.375-9.911 0.375t-9.911-0.375q-1.036-0.107-1.83-0.821t-1.027-1.768q-0.464-2-0.464-6.25 0-4.179 0.464-6.25 0.25-1.054 1.036-1.768t1.839-0.839q3.268-0.357 9.893-0.357t9.911 0.357q1.036 0.125 1.83 0.839t1.027 1.768q0.464 2 0.464 6.25zM9.125 0h1.821l-2.161 7.125v4.839h-1.786v-4.839q-0.25-1.321-1.089-3.786-0.661-1.839-1.161-3.339h1.893l1.268 4.696zM15.732 5.946v3.125q0 1.446-0.5 2.107-0.661 0.911-1.893 0.911-1.196 0-1.875-0.911-0.5-0.679-0.5-2.107v-3.125q0-1.429 0.5-2.089 0.679-0.911 1.875-0.911 1.232 0 1.893 0.911 0.5 0.661 0.5 2.089zM21.714 3.054v8.911h-1.625v-0.982q-0.946 1.107-1.839 1.107-0.821 0-1.054-0.661-0.143-0.429-0.143-1.339v-7.036h1.625v6.554q0 0.589 0.018 0.625 0.054 0.393 0.375 0.393 0.482 0 1.018-0.768v-6.804h1.625z"></path>
</symbol>
<symbol id="icon-arrow-right" viewBox="0 0 512 512">
  <title>Arrow Right</title>
  <g class="path1">
    <path d="M508.625,247.801L508.625,247.801L392.262,131.437c-4.18-4.881-11.526-5.45-16.407-1.269 c-4.881,4.18-5.45,11.526-1.269,16.407c0.39,0.455,0.814,0.88,1.269,1.269l96.465,96.582H11.636C5.21,244.426,0,249.636,0,256.063 s5.21,11.636,11.636,11.636H472.32l-96.465,96.465c-4.881,4.18-5.45,11.526-1.269,16.407s11.526,5.45,16.407,1.269 c0.455-0.39,0.88-0.814,1.269-1.269l116.364-116.364C513.137,259.67,513.137,252.34,508.625,247.801z"></path>
  </g>
</symbol>
<symbol id="icon-arrow-left" viewBox="0 0 512 512">
  <title>Arrow Left</title>
  <g class="path1" transform="rotate(180), translate(-512, -512)">
    <path d="M508.625,247.801L508.625,247.801L392.262,131.437c-4.18-4.881-11.526-5.45-16.407-1.269 c-4.881,4.18-5.45,11.526-1.269,16.407c0.39,0.455,0.814,0.88,1.269,1.269l96.465,96.582H11.636C5.21,244.426,0,249.636,0,256.063 s5.21,11.636,11.636,11.636H472.32l-96.465,96.465c-4.881,4.18-5.45,11.526-1.269,16.407s11.526,5.45,16.407,1.269 c0.455-0.39,0.88-0.814,1.269-1.269l116.364-116.364C513.137,259.67,513.137,252.34,508.625,247.801z"></path>
  </g>
</symbol>
<symbol id="icon-send" viewBox="0 0 24 24">
<title>send</title>
<path d="M2.016 21v-6.984l15-2.016-15-2.016v-6.984l21 9z"></path>
</symbol>
<symbol id="icon-check" viewBox="0 0 32 32">
<title>Check Mark</title>
<g stroke="none" stroke-width="1" fill="none" fill-rule="evenodd" class="path1">
<polyline points="19.3907534 27.5420751 23.8486783 32 33.4877702 19"></polyline>
</g>
</symbol>
<symbol id="icon-tiles" viewBox="0 0 132 132">
  <title>Tiles</title>
  <g fill-rule="evenodd" class="path1">
    <path d="M45.321678,0 L15.178322,0 C6.80906992,0 0,6.80906992 0,15.178322 L0,45.321678 C0,53.6909301 6.80906992,60.5 15.178322,60.5 L45.321678,60.5 C53.6909301,60.5 60.5,53.6909301 60.5,45.321678 L60.5,15.178322 C60.5,6.80906992 53.6909301,0 45.321678,0 Z M50.2457627,45.321678 C50.2457627,48.0367436 48.0367436,50.2457627 45.321678,50.2457627 L15.178322,50.2457627 C12.4632564,50.2457627 10.2542373,48.0367436 10.2542373,45.321678 L10.2542373,15.178322 C10.2542373,12.4632564 12.4632564,10.2542373 15.178322,10.2542373 L45.321678,10.2542373 C48.0367436,10.2542373 50.2457627,12.4632564 50.2457627,15.178322 L50.2457627,45.321678 Z"></path>
    <path d="M116.618644,0 L86.8813559,0 C78.4000763,0 71.5,6.90007627 71.5,15.3813559 L71.5,45.1186441 C71.5,53.5999237 78.4000763,60.5 86.8813559,60.5 L116.618644,60.5 C125.099924,60.5 132,53.5999237 132,45.1186441 L132,15.3813559 C132,6.90007627 125.099924,0 116.618644,0 Z M121.745763,45.1186441 C121.745763,47.9457373 119.445737,50.2457627 116.618644,50.2457627 L86.8813559,50.2457627 C84.0542627,50.2457627 81.7542373,47.9457373 81.7542373,45.1186441 L81.7542373,15.3813559 C81.7542373,12.5542627 84.0542627,10.2542373 86.8813559,10.2542373 L116.618644,10.2542373 C119.445737,10.2542373 121.745763,12.5542627 121.745763,15.3813559 L121.745763,45.1186441 Z"></path>
    <path d="M45.321678,71.5 L15.178322,71.5 C6.80906992,71.5 0,78.3090699 0,86.678322 L0,116.821678 C0,125.19093 6.80906992,132 15.178322,132 L45.321678,132 C53.6909301,132 60.5,125.19093 60.5,116.821678 L60.5,86.678322 C60.5,78.3090699 53.6909301,71.5 45.321678,71.5 Z M50.2457627,116.821678 C50.2457627,119.536744 48.0367436,121.745763 45.321678,121.745763 L15.178322,121.745763 C12.4632564,121.745763 10.2542373,119.536744 10.2542373,116.821678 L10.2542373,86.678322 C10.2542373,83.9632564 12.4632564,81.7542373 15.178322,81.7542373 L45.321678,81.7542373 C48.0367436,81.7542373 50.2457627,83.9632564 50.2457627,86.678322 L50.2457627,116.821678 Z"></path>
    <path d="M116.618644,71.5 L86.8813559,71.5 C78.4000763,71.5 71.5,78.4000763 71.5,86.8813559 L71.5,116.618644 C71.5,125.099924 78.4000763,132 86.8813559,132 L116.618644,132 C125.099924,132 132,125.099924 132,116.618644 L132,86.8813559 C132,78.4000763 125.099924,71.5 116.618644,71.5 Z M121.745763,116.618644 C121.745763,119.445737 119.445737,121.745763 116.618644,121.745763 L86.8813559,121.745763 C84.0542627,121.745763 81.7542373,119.445737 81.7542373,116.618644 L81.7542373,86.8813559 C81.7542373,84.0542627 84.0542627,81.7542373 86.8813559,81.7542373 L116.618644,81.7542373 C119.445737,81.7542373 121.745763,84.0542627 121.745763,86.8813559 L121.745763,116.618644 Z"></path>
  </g>
</symbol>
<symbol id="icon-calendar" viewBox="0 0 141 132">
  <title>Calendar</title>
  <g fill-rule="evenodd" class="path1" transform="translate(0, 4)">
    <path d="M118.716567,9.1200916 L101.129114,9.1200916 L101.129114,4.73638168 C101.129114,2.10645802 99.3704702,0.352671756 96.7319986,0.352671756 C94.093527,0.352671756 92.3348828,2.1059542 92.3348828,4.73638168 L92.3348828,9.1200916 L48.366252,9.1200916 L48.366252,4.73638168 C48.366252,2.10645802 46.6076078,0.352671756 43.9691362,0.352671756 C41.33117,0.352671756 39.5720204,2.1059542 39.5720204,4.73638168 L39.5720204,9.1200916 L21.9845681,9.1200916 C9.67304825,9.1200916 2.84217094e-14,18.7636489 2.84217094e-14,31.0376336 L2.84217094e-14,109.940885 C2.84217094e-14,122.21487 9.67304825,131.858427 21.9845681,131.858427 L118.716567,131.858427 C131.028087,131.858427 140.701135,122.21487 140.701135,109.940885 L140.701135,31.0376336 C140.701135,18.7636489 131.028087,9.1200916 118.716567,9.1200916 Z M8.79372617,31.0376336 C8.79372617,24.024 14.9494861,17.8870076 21.9845681,17.8870076 L39.5720204,17.8870076 L39.5720204,22.2707176 C39.5720204,24.9006412 41.3306646,26.6544275 43.9691362,26.6544275 C46.6071025,26.6544275 48.366252,24.901145 48.366252,22.2707176 L48.366252,17.8870076 L92.3353882,17.8870076 L92.3353882,22.2707176 C92.3353882,24.9006412 94.0940324,26.6544275 96.732504,26.6544275 C99.3709756,26.6544275 101.12962,24.901145 101.12962,22.2707176 L101.12962,17.8870076 L118.717072,17.8870076 C125.752154,17.8870076 131.907914,24.024 131.907914,31.0376336 L131.907914,44.1882595 L8.79372617,44.1882595 L8.79372617,31.0376336 Z M131.907409,109.940885 C131.907409,116.954519 125.751649,123.091511 118.716567,123.091511 L21.9845681,123.091511 C14.9494861,123.091511 8.79372617,116.954519 8.79372617,109.940885 L8.79372617,52.9551756 L131.907409,52.9551756 L131.907409,109.940885 Z"></path>
    <path d="M30.7782943,109.940885 C33.4162605,109.940885 35.17541,109.064244 36.9340542,107.310962 C38.6926984,105.557679 39.5720204,102.927252 39.5720204,101.173969 C39.5720204,99.420687 38.6926984,96.7902595 36.9340542,95.0369771 C33.4167659,91.5304122 28.140328,91.5304122 24.6225344,95.0369771 C22.8638902,96.7902595 21.9845681,98.543542 21.9845681,101.173969 C21.9845681,102.927252 22.8638902,105.557679 24.6225344,107.310962 C26.3811785,109.064244 28.140328,109.940885 30.7782943,109.940885 Z"></path>
    <path d="M30.7782943,83.6396336 C33.4162605,83.6396336 35.17541,82.7629924 36.9340542,81.0097099 C38.6926984,79.2564275 39.5720204,76.626 39.5720204,74.8727176 C39.5720204,73.1194351 38.6926984,70.4890076 36.9340542,68.7357252 C33.4167659,65.2291603 28.140328,65.2291603 24.6225344,68.7357252 C22.8638902,70.4890076 21.9845681,72.2422901 21.9845681,74.8727176 C21.9845681,77.503145 22.8638902,79.2564275 24.6225344,81.0097099 C26.3811785,82.7629924 28.140328,83.6396336 30.7782943,83.6396336 Z"></path>
    <path d="M57.1599781,109.940885 C59.7979444,109.940885 61.5570939,109.064244 63.3157381,107.310962 C65.0743822,105.557679 65.9537043,102.927252 65.9537043,101.173969 C65.9537043,99.420687 65.0743822,96.7902595 63.3157381,95.0369771 C59.7984498,91.5304122 54.5220119,91.5304122 51.0042182,95.0369771 C49.2455741,96.7902595 48.366252,99.420687 48.366252,101.173969 C48.366252,102.927252 49.2455741,105.557679 51.0042182,107.310962 C52.7628624,109.064244 54.5220119,109.940885 57.1599781,109.940885 Z"></path>
    <path d="M57.1599781,83.6396336 C59.7979444,83.6396336 61.5570939,82.7629924 63.3157381,81.0097099 C65.0743822,79.2564275 65.9537043,76.626 65.9537043,74.8727176 C65.9537043,73.1194351 65.0743822,70.4890076 63.3157381,68.7357252 C59.7984498,65.2291603 54.5220119,65.2291603 51.0042182,68.7357252 C49.2455741,70.4890076 48.366252,73.1194351 48.366252,74.8727176 C48.366252,76.626 49.2455741,79.2564275 51.0042182,81.0097099 C52.7628624,82.7629924 54.5220119,83.6396336 57.1599781,83.6396336 Z"></path>
    <path d="M83.5411567,109.940885 C86.1791229,109.940885 87.9382724,109.064244 89.6969166,107.310962 C91.4555608,105.557679 92.3348828,103.804397 92.3348828,101.173969 C92.3348828,98.543542 91.4555608,96.7902595 89.6969166,95.0369771 C86.1796283,91.5304122 80.9031904,91.5304122 77.3853967,95.0369771 C75.6267526,96.7902595 74.7474305,99.420687 74.7474305,101.173969 C74.7474305,102.927252 75.6267526,105.557679 77.3853967,107.310962 C79.1440409,109.064244 80.9031904,109.940885 83.5411567,109.940885 Z"></path>
    <path d="M83.5411567,83.6396336 C86.1791229,83.6396336 87.9382724,82.7629924 89.6969166,81.0097099 C91.4555608,79.2564275 92.3348828,77.503145 92.3348828,74.8727176 C92.3348828,73.1194351 91.4555608,70.4890076 89.6969166,68.7357252 C86.1796283,65.2291603 80.9031904,65.2291603 77.3853967,68.7357252 C75.6267526,70.4890076 74.7474305,73.1194351 74.7474305,74.8727176 C74.7474305,76.626 75.6267526,79.2564275 77.3853967,81.0097099 C79.1440409,82.7629924 80.9031904,83.6396336 83.5411567,83.6396336 Z"></path>
    <path d="M109.922841,109.940885 C112.560807,109.940885 114.319956,109.064244 116.0786,107.310962 C117.837245,105.557679 118.716567,102.927252 118.716567,101.173969 C118.716567,99.420687 117.837245,96.7902595 116.0786,95.0369771 C112.561312,91.5304122 107.284874,91.5304122 103.767081,95.0369771 C102.008436,96.7902595 101.129114,98.543542 101.129114,101.173969 C101.129114,102.927252 102.008436,105.557679 103.767081,107.310962 C105.525725,109.064244 107.284874,109.940885 109.922841,109.940885 Z"></path>
    <path d="M109.922841,83.6396336 C112.560807,83.6396336 114.319956,82.7629924 116.0786,81.0097099 C117.837245,79.2564275 118.716567,77.503145 118.716567,74.8727176 C118.716567,73.1194351 117.837245,70.4890076 116.0786,68.7357252 C112.561312,65.2291603 107.284874,65.2291603 103.767081,68.7357252 C102.008436,70.4890076 101.129114,73.1194351 101.129114,74.8727176 C101.129114,76.626 102.008436,79.2564275 103.767081,81.0097099 C105.525725,82.7629924 107.284874,83.6396336 109.922841,83.6396336 Z"></path>
  </g>
</symbol>
<symbol id="icon-user" viewBox="0 0 132 132">
<title>User</title>
<g fill-rule="evenodd" class="path1">
<path d="M112.669219,85.3307813 C105.480633,78.1424531 96.9243516,72.8209453 87.5889609,69.5995781 C97.5874453,62.7131484 104.15625,51.1881562 104.15625,38.15625 C104.15625,17.1169453 87.0393047,0 66,0 C44.9606953,0 27.84375,17.1169453 27.84375,38.15625 C27.84375,51.1881562 34.4125547,62.7131484 44.4112969,69.5995781 C35.0759062,72.8209453 26.519625,78.1424531 19.3310391,85.3307813 C6.86528906,97.7967891 0,114.370781 0,132 L10.3125,132 C10.3125,101.293758 35.2937578,76.3125 66,76.3125 C96.7062422,76.3125 121.6875,101.293758 121.6875,132 L132,132 C132,114.370781 125.134711,97.7967891 112.669219,85.3307813 Z M66,66 C50.6470078,66 38.15625,53.5095 38.15625,38.15625 C38.15625,22.803 50.6470078,10.3125 66,10.3125 C81.3529922,10.3125 93.84375,22.803 93.84375,38.15625 C93.84375,53.5095 81.3529922,66 66,66 Z" id="Person---Age-Icon"></path>
</g>
</symbol>
<symbol id="icon-lock" viewBox="0 0 82 100">
  <title>Lock</title>
  <path d="M15.1141388,100 L65.8743144,100 C74.1064205,100 80.8037778,93.1268657 80.8037778,84.8970149 L80.8037778,52.061194 C80.8037778,43.8313433 74.1064205,37.1358209 65.8743144,37.1358209 L65.8743144,24.9462687 C65.8743144,11.0925373 54.7443994,0 41.0645321,0 L40.565888,0 C26.5306995,0 15.1141388,11.0925373 15.1141388,24.9462687 L15.1141388,37.1358209 C6.8820327,37.1358209 0.184675417,43.8313433 0.184675417,52.061194 L0.184675417,84.8970149 C0.184675417,93.1268657 6.8820327,100 15.1141388,100 Z M21.0859242,24.9462687 C21.0859242,14.3850746 29.825632,5.97014925 40.565888,5.97014925 L41.0645321,5.97014925 C51.6271274,5.97014925 59.902529,14.2059701 59.902529,24.9462687 L59.902529,37.3134328 L21.0859242,37.3134328 L21.0859242,24.9462687 Z M74.8319924,85.0746269 C74.8319924,90.019403 70.8204456,94.0298507 65.8743144,94.0298507 L15.1141388,94.0298507 C10.1680076,94.0298507 6.15646078,90.019403 6.15646078,85.0746269 L6.15646078,52.238806 C6.15646078,47.2940299 10.1680076,43.2835821 15.1141388,43.2835821 L65.8743144,43.2835821 C70.8204456,43.2835821 74.8319924,47.2940299 74.8319924,52.238806 L74.8319924,85.0746269 Z"></path>
  <path d="M36.0153876,72.8134328 L36.0153876,79.1134328 C36.0153876,81.4835821 37.9368095,83.5820896 40.3076083,83.5820896 L40.6808449,83.5820896 C43.0516437,83.5820896 44.9730656,81.4835821 44.9730656,79.1134328 L44.9730656,72.6074627 C47.6573831,71.0134328 49.4623553,68.0955224 49.4623553,64.7477612 C49.4623553,59.6985075 45.3686964,55.6059701 40.3180589,55.6059701 C35.2674215,55.6059701 31.1737626,59.6985075 31.1737626,64.7477612 C31.1737626,68.241791 33.1340011,71.2746269 36.0153876,72.8134328 Z"></path>
</symbol>
<symbol id="icon-doc" viewBox="0 0 74 94">
  <title>Document</title>
  <path d="M72.7995656,25.3215849 L48.2736423,0.89449263 C47.6913662,0.314380051 46.9028789,0 46.1059447,0 L3.18553302,0 C1.49250705,0 0.119723745,1.36706858 0.119723745,3.05345511 L0.119723745,90.5840671 C0.119723745,92.2702707 1.49232343,93.6375222 3.18553302,93.6375222 L70.6318681,93.6375222 C72.324894,93.6375222 73.6976773,92.2704536 73.6976773,90.5840671 L73.6976773,27.4805473 C73.6976773,26.6992608 73.3847797,25.904075 72.7995656,25.3215849 Z M49.171754,10.4248352 C50.6613231,11.9084018 61.7405437,22.942977 63.2306637,24.4270922 L49.171754,24.4270922 L49.171754,10.4248352 Z M67.5662424,87.530612 L6.25115867,87.530612 L6.25115867,6.10672734 L43.0401355,6.10672734 L43.0401355,27.4805473 C43.0401355,29.166751 44.4127351,30.5340025 46.1059447,30.5340025 L67.5662424,30.5340025 L67.5662424,87.530612 Z"></path>
  <path d="M58.3689982,44.7831548 L27.7114563,44.7831548 C26.0184304,44.7831548 24.6456471,46.1502234 24.6456471,47.8366099 C24.6456471,49.5228136 26.0182468,50.8900651 27.7114563,50.8900651 L58.3689982,50.8900651 C60.0620242,50.8900651 61.4348075,49.5229965 61.4348075,47.8366099 C61.4346239,46.1502234 60.0620242,44.7831548 58.3689982,44.7831548 Z"></path>
  <path d="M58.3689982,56.9966095 L27.7114563,56.9966095 C26.0184304,56.9966095 24.6456471,58.3636781 24.6456471,60.0500646 C24.6456471,61.7364511 26.0182468,63.1035197 27.7114563,63.1035197 L58.3689982,63.1035197 C60.0620242,63.1035197 61.4348075,61.7364511 61.4348075,60.0500646 C61.4348075,58.3636781 60.0620242,56.9966095 58.3689982,56.9966095 Z"></path>
  <path d="M58.3689982,69.2102471 L27.7114563,69.2102471 C26.0184304,69.2102471 24.6456471,70.5773156 24.6456471,72.2637022 C24.6456471,73.9500887 26.0182468,75.3171573 27.7114563,75.3171573 L58.3689982,75.3171573 C60.0620242,75.3171573 61.4348075,73.9500887 61.4348075,72.2637022 C61.4348075,70.5773156 60.0620242,69.2102471 58.3689982,69.2102471 Z"></path>
  <ellipse cx="15.4484029" cy="47.8364271" rx="3.06580927" ry="3.05345511"></ellipse>
  <ellipse cx="15.4484029" cy="60.0500646" rx="3.06580927" ry="3.05345511"></ellipse>
  <ellipse cx="15.4484029" cy="72.2635193" rx="3.06580927" ry="3.05345511"></ellipse>
</symbol>
<symbol id="icon-checklist" viewBox="0 0 86 89">
  <title>Checklist</title>
  <path d="M66.1814505,46.6754126 L66.1814505,7.09004133 L7.26479911,7.09004133 L7.26479911,80.9437092 L34.3663617,80.9437092 C36.3106508,80.9437092 37.9013042,82.5388519 37.9013042,84.4886284 C37.9013042,86.438405 36.3106508,88.0335477 34.3663617,88.0335477 L3.72965445,88.0335477 C1.78536533,88.0335477 0.194711983,86.438405 0.194711983,84.4886284 L0.194711983,3.54491928 C0.194711983,1.59514271 1.78556752,0 3.72965445,0 L69.7161908,0 C71.6604799,0 73.2511332,1.59514271 73.2511332,3.54491928 L73.2511332,46.6754126 C73.2511332,48.6251892 71.6604799,50.2203319 69.7161908,50.2203319 C67.7719016,50.2203319 66.1814505,48.6251892 66.1814505,46.6754126 Z M84.3867176,55.3015924 C82.9137407,54.0016738 80.6750583,54.1198851 79.3787982,55.5970192 L59.9951495,77.2213716 L50.2739061,67.8271226 C48.8599695,66.4681997 46.621085,66.5272039 45.2659867,67.9453338 C43.9108883,69.3634638 43.9697265,71.6084644 45.3838653,72.9673873 L57.756265,84.9020638 C58.404294,85.5519217 59.2880802,85.9065556 60.2307045,85.9065556 C60.2895427,85.9065556 60.2895427,85.9065556 60.3485831,85.9065556 C61.2912075,85.8475513 62.2338318,85.4339132 62.8230226,84.7248483 L84.6222726,60.3826501 C85.9773709,58.8465117 85.8594924,56.601511 84.3867176,55.3015924 Z M53.2196578,20.6790675 L21.4047712,20.6790675 C19.4604821,20.6790675 17.8698287,22.2742103 17.8698287,24.2239868 C17.8698287,26.1737634 19.4604821,27.7689061 21.4047712,27.7689061 L53.2196578,27.7689061 C55.1639469,27.7689061 56.7546003,26.1737634 56.7546003,24.2239868 C56.7546003,22.2742103 55.1639469,20.6790675 53.2196578,20.6790675 Z M56.7548024,43.721347 C56.7548024,41.7715705 55.1641491,40.1764277 53.21986,40.1764277 L21.4047712,40.1764277 C19.4604821,40.1764277 17.8698287,41.7715705 17.8698287,43.721347 C17.8698287,45.6711236 19.4604821,47.2662663 21.4047712,47.2662663 L53.2196578,47.2662663 C55.1639469,47.2662663 56.7548024,45.6711236 56.7548024,43.721347 Z M21.4047712,59.0829343 C19.4604821,59.0829343 17.8698287,60.678077 17.8698287,62.6278535 C17.8698287,64.5776301 19.4604821,66.1727728 21.4047712,66.1727728 L30.8314192,66.1727728 C32.7757084,66.1727728 34.3663617,64.5776301 34.3663617,62.6278535 C34.3663617,60.678077 32.7757084,59.0829343 30.8314192,59.0829343 L21.4047712,59.0829343 Z"></path>
</symbol>
<symbol id="icon-search" viewBox="0 0 32 32">
<title>Search</title>
  <g class="path1" transform="translate(2, 4)">
    <path d="M9.516 14.016c2.484 0 4.5-2.016 4.5-4.5s-2.016-4.5-4.5-4.5-4.5 2.016-4.5 4.5 2.016 4.5 4.5 4.5zM15.516 14.016l4.969 4.969-1.5 1.5-4.969-4.969v-0.797l-0.281-0.281c-1.125 0.984-2.625 1.547-4.219 1.547-3.609 0-6.516-2.859-6.516-6.469s2.906-6.516 6.516-6.516 6.469 2.906 6.469 6.516c0 1.594-0.563 3.094-1.547 4.219l0.281 0.281h0.797z"></path>
  </g>
</symbol>
<symbol id="icon-phakic" viewBox="0 0 104 104">
  <title>PHAKIC IOL</title>
  <g class="path1" transform="translate(0, 15)">
    <path d="M70.7779005,31.6638283 C71.1500365,30.2744984 71.7497844,29.1783485 72.6403179,28.2769446 C73.0020805,27.910766 73.8356248,27.236078 73.8416486,27.2299605 C74.2606131,26.8044787 74.5,26.2297006 74.5,25.6111111 C74.5,24.3479907 73.5008844,23.3333333 72.2800875,23.3333333 L65.5853049,23.3333333 C65.3757309,23.3004304 65.3757309,23.3004304 65.281415,23.2848369 C64.4822625,23.1512797 63.6626882,22.9613349 62.6760706,22.6917793 C62.2981844,22.5885363 61.9143043,22.4790954 61.3820618,22.3240943 C61.2398761,22.2826866 61.0564434,22.2290868 60.7287231,22.1333316 C60.4670196,22.0569546 60.2654931,21.9984738 60.0678249,21.9416871 C56.5882754,20.9420729 54.1395063,20.5 51,20.5 C49.1880893,20.5 47.2315142,20.8432913 44.2386916,21.6005697 C43.8517436,21.6984797 43.4899777,21.7918431 42.8756817,21.9516703 C39.6338549,22.795127 38.3619156,23.0907602 36.6973704,23.3193821 L36.4932646,23.3333333 L29.7199125,23.3333333 C28.4991156,23.3333333 27.5,24.3479907 27.5,25.6111111 C27.5,26.2297006 27.7393869,26.8044787 28.1583514,27.2299605 C28.1643752,27.236078 28.9979195,27.910766 29.3596821,28.2769446 C30.5492103,29.480993 31.2199125,31.0325115 31.2199125,33.1666667 L31.2199125,38.8333337 C31.2199124,40.9674887 30.5492103,42.5190071 29.3596821,43.7230554 C28.9979195,44.089234 28.1643752,44.763922 28.1583514,44.7700395 C27.7393869,45.1955213 27.5,45.7702994 27.5,46.3888889 C27.5,47.6520093 28.4991156,48.6666667 29.7199125,48.6666667 L38.8475021,48.6666667 L39.0300859,48.7132769 C40.0572338,48.9754883 40.6944955,49.1627889 42.8394953,49.8148459 C43.9432189,50.1503662 44.5882469,50.3413896 45.2781452,50.532631 C47.6179089,51.1812189 49.3963414,51.5 51,51.5 C53.6154902,51.5 55.7242049,51.0952155 59.4606951,50.0549572 C62.2581898,49.2761201 62.8237489,49.1276077 64.0819347,48.8828943 C64.4904475,48.8034398 64.8867982,48.7363132 65.2759404,48.6813882 L65.4855778,48.6666667 L72.278777,48.6666663 C73.5008844,48.6666667 74.5,47.6520093 74.5,46.3888889 C74.5,45.7702994 74.2606131,45.1955213 73.8416486,44.7700395 C73.8356248,44.763922 73.0020805,44.089234 72.6403179,43.7230554 C71.7497844,42.8216515 71.1500365,41.7255016 70.9047999,40.3359319 L70.7779005,31.6638283 Z M73.7800875,38.8333333 C73.7800875,40.1574981 74.1264385,40.9587031 74.7744676,41.6146425 C74.979455,41.8221321 75.8155746,42.4989047 75.9792771,42.6651537 C76.9465459,43.6474688 77.5,44.976336 77.5,46.3888889 C77.5,49.2985866 75.1681925,51.6666667 72.2800875,51.6666667 L65.5930273,51.6666667 C65.2891847,51.7113199 64.9774646,51.7649333 64.654693,51.8277114 C63.5085079,52.050641 62.9695623,52.1921649 60.26531,52.9450428 C56.2851077,54.0531518 53.9572634,54.5 51,54.5 C49.0728779,54.5 47.0549059,54.1382818 44.4767582,53.4236133 C43.7566245,53.2239906 43.0929105,53.0274334 41.9669522,52.6851541 C40.0047967,52.0886797 39.3386317,51.8916204 38.4694232,51.6666667 L29.7199125,51.6666667 C26.8318075,51.6666667 24.5,49.2985866 24.5,46.3888889 C24.5,44.976336 25.0534541,43.6474688 26.0207229,42.6651537 C26.1844254,42.4989047 27.020545,41.8221321 27.2255324,41.6146425 C27.8735615,40.9587032 28.2199124,40.1574982 28.2199125,38.8333337 L28.2199125,33.1666667 C28.2199125,31.8425019 27.8735615,31.0412969 27.2255324,30.3853575 C27.020545,30.1778679 26.1844254,29.5010953 26.0207229,29.3348463 C25.0534541,28.3525312 24.5,27.023664 24.5,25.6111111 C24.5,22.7014134 26.8318075,20.3333333 29.7199125,20.3333333 L36.3894707,20.3333333 C37.8473827,20.1279998 39.0704701,19.8418307 42.1202921,19.0483297 C42.7406794,18.8869177 43.1076083,18.7922219 43.5027897,18.6922285 C46.7199103,17.8781956 48.8754215,17.5 51,17.5 C54.4672821,17.5 57.1706426,17.988034 60.8961683,19.0583129 C61.098558,19.1164559 61.3037978,19.1760143 61.5691978,19.2534701 C61.8984628,19.3496762 62.0802464,19.4027942 62.2208832,19.4437508 C62.7384642,19.5944821 63.1081475,19.6998756 63.4667281,19.7978441 C64.363659,20.0428963 65.0901045,20.2112575 65.7759274,20.3258747 C65.7884918,20.327952 67.9559623,20.3304382 72.2783388,20.3333334 C75.1681925,20.3333333 77.5,22.7014134 77.5,25.6111111 C77.5,27.023664 76.9465459,28.3525312 75.9792771,29.3348463 C75.8155746,29.5010953 74.979455,30.1778679 74.7744676,30.3853575 C74.1264385,31.0412969 73.7800875,31.8425019 73.7800875,33.1666667 L73.7800875,34.6666667 L73.7779005,37.3333333 L73.7800875,38.8333333 Z" id="Combined-Shape" fill="#8CD2E1" fill-rule="nonzero"></path>
    <path d="M52,69 C70.2253967,69 85,54.2253967 85,36 C85,17.7746033 70.2253967,3 52,3 C33.7746033,3 19,17.7746033 19,36 C19,54.2253967 33.7746033,69 52,69 Z M26.2838939,10.8070895 C32.8181104,4.13802844 41.925811,0 52,0 C62.3037996,0 71.5965525,4.32880572 78.1588596,11.2670181 L103.417262,35.9840187 L76.8181152,62.1544189 L76.8399519,62.0572717 C70.3795991,68.2176493 61.6315072,72 52,72 C42.5644238,72 33.9766864,68.3699707 27.5571399,62.430264 L27.5590363,62.4365997 L27.4695083,62.3489137 C27.0257422,61.9355902 26.59243,61.5111902 26.1700121,61.076154 L0.550775542,35.9840187 L26.2838914,10.807092 Z M18.8576387,21.9197962 L4.79341623,35.9840187 L18.8340738,50.0246763 C17.0092083,45.7145315 16,40.9751224 16,36 C16,31.0035037 17.0178984,26.2447503 18.8576387,21.9197962 Z M85.3407728,22.3957252 C87.0551455,26.59291 88,31.1861137 88,36 C88,40.8644602 87.0351882,45.5035765 85.2864855,49.7364282 L99.1746212,35.9840187 L85.3407728,22.3957252 Z" id="Combined-Shape" fill="#8CD2E1" fill-rule="nonzero"></path>
    <circle id="Oval-2" fill="#8CD2E1" cx="52" cy="36" r="12"></circle>
  </g>
</symbol>
<symbol id="icon-cross_linking" viewBox="0 0 104 104">
  <title>Cross Linking</title>
  <g class="path1" transform="translate(0, 15)">
    <path d="M52,49 C59.1797017,49 65,43.1797017 65,36 C65,31.2135322 60.6666667,25.2135322 52,18 C43.3333333,25.2135322 39,31.2135322 39,36 C39,43.1797017 44.8202983,49 52,49 Z"></path>
    <path d="M52,69 C70.2253967,69 85,54.2253967 85,36 C85,17.7746033 70.2253967,3 52,3 C33.7746033,3 19,17.7746033 19,36 C19,54.2253967 33.7746033,69 52,69 Z M26.2838939,10.8070895 C32.8181104,4.13802844 41.925811,0 52,0 C62.3037996,0 71.5965525,4.32880572 78.1588596,11.2670181 L103.417262,35.9840187 L76.8181152,62.1544189 L76.8399519,62.0572717 C70.3795991,68.2176493 61.6315072,72 52,72 C42.5644238,72 33.9766864,68.3699707 27.5571399,62.430264 L27.5590363,62.4365997 L27.4695083,62.3489137 C27.0257422,61.9355902 26.59243,61.5111902 26.1700121,61.076154 L0.550775542,35.9840187 L26.2838914,10.807092 Z M18.8576387,21.9197962 L4.79341623,35.9840187 L18.8340738,50.0246763 C17.0092083,45.7145315 16,40.9751224 16,36 C16,31.0035037 17.0178984,26.2447503 18.8576387,21.9197962 Z M85.3407728,22.3957252 C87.0551455,26.59291 88,31.1861137 88,36 C88,40.8644602 87.0351882,45.5035765 85.2864855,49.7364282 L99.1746212,35.9840187 L85.3407728,22.3957252 Z" fill-rule="nonzero"></path>
  </g>
</symbol>
<symbol id="icon-cataracts" viewBox="0 0 104 104">
  <title>Cataracts</title>
  <g class="path1" transform="translate(0, 15)">
    <path d="M52,51 C43.7157288,51 37,44.2842712 37,36 C37,27.7157288 43.7157288,21 52,21 C60.2842712,21 67,27.7157288 67,36 C67,44.2842712 60.2842712,51 52,51 Z M52,38 C53.1045695,38 54,37.1045695 54,36 C54,34.8954305 53.1045695,34 52,34 C50.8954305,34 50,34.8954305 50,36 C50,37.1045695 50.8954305,38 52,38 Z M52,32 C53.1045695,32 54,31.1045695 54,30 C54,28.8954305 53.1045695,28 52,28 C50.8954305,28 50,28.8954305 50,30 C50,31.1045695 50.8954305,32 52,32 Z M52,44 C53.1045695,44 54,43.1045695 54,42 C54,40.8954305 53.1045695,40 52,40 C50.8954305,40 50,40.8954305 50,42 C50,43.1045695 50.8954305,44 52,44 Z M47.8158589,29.1781107 C48.7724441,28.625826 49.1001944,27.4026451 48.5479097,26.4460599 C47.9956249,25.4894747 46.7724441,25.1617243 45.8158589,25.7140091 C44.8592736,26.2662938 44.5315233,27.4894747 45.0838081,28.4460599 C45.6360928,29.4026451 46.8592736,29.7303955 47.8158589,29.1781107 Z M57.8158589,46.4986188 C58.7724441,45.946334 59.1001944,44.7231532 58.5479097,43.766568 C57.9956249,42.8099827 56.7724441,42.4822324 55.8158589,43.0345172 C54.8592736,43.5868019 54.5315233,44.8099827 55.0838081,45.766568 C55.6360928,46.7231532 56.8592736,47.0509035 57.8158589,46.4986188 Z M44,36 C44,34.8954305 43.1045695,34 42,34 C40.8954305,34 40,34.8954305 40,36 C40,37.1045695 40.8954305,38 42,38 C43.1045695,38 44,37.1045695 44,36 Z M64,36 C64,34.8954305 63.1045695,34 62,34 C60.8954305,34 60,34.8954305 60,36 C60,37.1045695 60.8954305,38 62,38 C63.1045695,38 64,37.1045695 64,36 Z M47.8158589,42.8218893 C46.8592736,42.2696045 45.6360928,42.5973549 45.0838081,43.5539401 C44.5315233,44.5105253 44.8592736,45.7337062 45.8158589,46.2859909 C46.7724441,46.8382757 47.9956249,46.5105253 48.5479097,45.5539401 C49.1001944,44.5973549 48.7724441,43.374174 47.8158589,42.8218893 Z M57.8158589,25.5013812 C56.8592736,24.9490965 55.6360928,25.2768468 55.0838081,26.233432 C54.5315233,27.1900173 54.8592736,28.4131981 55.8158589,28.9654828 C56.7724441,29.5177676 57.9956249,29.1900173 58.5479097,28.233432 C59.1001944,27.2768468 58.7724441,26.053666 57.8158589,25.5013812 Z M55.2799605,34.1063139 C55.8322452,35.0628992 57.055426,35.3906495 58.0120113,34.8383647 C58.9685965,34.28608 59.2963468,33.0628992 58.7440621,32.1063139 C58.1917773,31.1497287 56.9685965,30.8219784 56.0120113,31.3742631 C55.055426,31.9265479 54.7276757,33.1497287 55.2799605,34.1063139 Z M44.8876556,40.1063139 C45.4399404,41.0628992 46.6631212,41.3906495 47.6197064,40.8383647 C48.5762917,40.28608 48.904042,39.0628992 48.3517572,38.1063139 C47.7994725,37.1497287 46.5762917,36.8219784 45.6197064,37.3742631 C44.6631212,37.9265479 44.3353709,39.1497287 44.8876556,40.1063139 Z M55.2799605,37.8936861 C54.7276757,38.8502713 55.055426,40.0734521 56.0120113,40.6257369 C56.9685965,41.1780216 58.1917773,40.8502713 58.7440621,39.8936861 C59.2963468,38.9371008 58.9685965,37.71392 58.0120113,37.1616353 C57.055426,36.6093505 55.8322452,36.9371008 55.2799605,37.8936861 Z M44.8876556,31.8936861 C44.3353709,32.8502713 44.6631212,34.0734521 45.6197064,34.6257369 C46.5762917,35.1780216 47.7994725,34.8502713 48.3517572,33.8936861 C48.904042,32.9371008 48.5762917,31.71392 47.6197064,31.1616353 C46.6631212,30.6093505 45.4399404,30.9371008 44.8876556,31.8936861 Z"></path>
    <path d="M52,69 C70.2253967,69 85,54.2253967 85,36 C85,17.7746033 70.2253967,3 52,3 C33.7746033,3 19,17.7746033 19,36 C19,54.2253967 33.7746033,69 52,69 Z M26.2838939,10.8070895 C32.8181104,4.13802844 41.925811,0 52,0 C62.3037996,0 71.5965525,4.32880572 78.1588596,11.2670181 L103.417262,35.9840187 L76.8181152,62.1544189 L76.8399519,62.0572717 C70.3795991,68.2176493 61.6315072,72 52,72 C42.5644238,72 33.9766864,68.3699707 27.5571399,62.430264 L27.5590363,62.4365997 L27.4695083,62.3489137 C27.0257422,61.9355902 26.59243,61.5111902 26.1700121,61.076154 L0.550775542,35.9840187 L26.2838914,10.807092 Z M18.8576387,21.9197962 L4.79341623,35.9840187 L18.8340738,50.0246763 C17.0092083,45.7145315 16,40.9751224 16,36 C16,31.0035037 17.0178984,26.2447503 18.8576387,21.9197962 Z M85.3407728,22.3957252 C87.0551455,26.59291 88,31.1861137 88,36 C88,40.8644602 87.0351882,45.5035765 85.2864855,49.7364282 L99.1746212,35.9840187 L85.3407728,22.3957252 Z"></path>
  </g>
</symbol>
<symbol id="icon-smile" viewBox="0 0 104 104">
  <title>SMILE</title>
  <g class="path1" transform="translate(0, 15)">
    <path d="M70.3241161,53.5875721 C69.7383297,54.1733585 68.7885822,54.1733585 68.2027958,53.5875721 C67.6170094,53.0017857 67.6170094,52.0520382 68.2027958,51.4662518 C76.5990681,43.0699795 76.5990681,29.4569324 68.2027958,21.0606602 C67.6170094,20.4748737 67.6170094,19.5251263 68.2027958,18.9393398 C68.7885822,18.3535534 69.7383297,18.3535534 70.3241161,18.9393398 C79.8919613,28.507185 79.8919613,44.019727 70.3241161,53.5875721 Z M54.802767,48.2880484 C48.4011738,50.0033501 41.8211303,46.2043602 40.1058285,39.802767 C38.3905268,33.4011738 42.1895167,26.8211303 48.5911099,25.1058285 C54.9927032,23.3905268 61.5727466,27.1895167 63.2880484,33.5911099 C65.0033501,39.9927032 61.2043602,46.5727466 54.802767,48.2880484 Z" fill-rule="nonzero"></path>
    <path d="M52,69 C70.2253967,69 85,54.2253967 85,36 C85,17.7746033 70.2253967,3 52,3 C33.7746033,3 19,17.7746033 19,36 C19,54.2253967 33.7746033,69 52,69 Z M26.2838939,10.8070895 C32.8181104,4.13802844 41.925811,0 52,0 C62.3037996,0 71.5965525,4.32880572 78.1588596,11.2670181 L103.417262,35.9840187 L76.8181152,62.1544189 L76.8399519,62.0572717 C70.3795991,68.2176493 61.6315072,72 52,72 C42.5644238,72 33.9766864,68.3699707 27.5571399,62.430264 L27.5590363,62.4365997 L27.4695083,62.3489137 C27.0257422,61.9355902 26.59243,61.5111902 26.1700121,61.076154 L0.550775542,35.9840187 L26.2838914,10.807092 Z M18.8576387,21.9197962 L4.79341623,35.9840187 L18.8340738,50.0246763 C17.0092083,45.7145315 16,40.9751224 16,36 C16,31.0035037 17.0178984,26.2447503 18.8576387,21.9197962 Z M85.3407728,22.3957252 C87.0551455,26.59291 88,31.1861137 88,36 C88,40.8644602 87.0351882,45.5035765 85.2864855,49.7364282 L99.1746212,35.9840187 L85.3407728,22.3957252 Z" fill-rule="nonzero"></path>
  </g>
</symbol>
<symbol id="icon-karma" viewBox="0 0 104 104">
  <title>Karma</title>
  <g class="path1" transform="translate(0, 15)">
    <path d="M41.260766,47.8605543 L32.3411157,56.7802046 C31.7553293,57.3659911 30.8055818,57.3659911 30.2197954,56.7802046 C29.6340089,56.1944182 29.6340089,55.2446707 30.2197954,54.6588843 L39.233152,45.6455277 C37.2037899,42.9636571 36,39.6224087 36,36 C36,27.163444 43.163444,20 52,20 C60.836556,20 68,27.163444 68,36 C68,44.836556 60.836556,52 52,52 C47.8669955,52 44.0999991,50.432933 41.260766,47.8605543 Z M52,49 C59.1797017,49 65,43.1797017 65,36 C65,28.8202983 59.1797017,23 52,23 C44.8202983,23 39,28.8202983 39,36 C39,43.1797017 44.8202983,49 52,49 Z M52,44 C47.581722,44 44,40.418278 44,36 C44,31.581722 47.581722,28 52,28 C56.418278,28 60,31.581722 60,36 C60,40.418278 56.418278,44 52,44 Z"></path>
    <path d="M52,69 C70.2253967,69 85,54.2253967 85,36 C85,17.7746033 70.2253967,3 52,3 C33.7746033,3 19,17.7746033 19,36 C19,54.2253967 33.7746033,69 52,69 Z M26.2838939,10.8070895 C32.8181104,4.13802844 41.925811,0 52,0 C62.3037996,0 71.5965525,4.32880572 78.1588596,11.2670181 L103.417262,35.9840187 L76.8181152,62.1544189 L76.8399519,62.0572717 C70.3795991,68.2176493 61.6315072,72 52,72 C42.5644238,72 33.9766864,68.3699707 27.5571399,62.430264 L27.5590363,62.4365997 L27.4695083,62.3489137 C27.0257422,61.9355902 26.59243,61.5111902 26.1700121,61.076154 L0.550775542,35.9840187 L26.2838914,10.807092 Z M18.8576387,21.9197962 L4.79341623,35.9840187 L18.8340738,50.0246763 C17.0092083,45.7145315 16,40.9751224 16,36 C16,31.0035037 17.0178984,26.2447503 18.8576387,21.9197962 Z M85.3407728,22.3957252 C87.0551455,26.59291 88,31.1861137 88,36 C88,40.8644602 87.0351882,45.5035765 85.2864855,49.7364282 L99.1746212,35.9840187 L85.3407728,22.3957252 Z" fill-rule="nonzero"></path>
  </g>
</symbol>
<symbol id="icon-lasik" viewBox="0 0 104 104">
  <title>Lasik</title>
  <g class="path1" transform="translate(0, 15)">
    <path d="M52,69 C70.2253967,69 85,54.2253967 85,36 C85,17.7746033 70.2253967,3 52,3 C33.7746033,3 19,17.7746033 19,36 C19,54.2253967 33.7746033,69 52,69 Z M26.2838939,10.8070895 C32.8181104,4.13802844 41.925811,0 52,0 C62.3037996,0 71.5965525,4.32880572 78.1588596,11.2670181 L103.417262,35.9840187 L76.8181152,62.1544189 L76.8399519,62.0572717 C70.3795991,68.2176493 61.6315072,72 52,72 C42.5644238,72 33.9766864,68.3699707 27.5571399,62.430264 L27.5590363,62.4365997 L27.4695083,62.3489137 C27.0257422,61.9355902 26.59243,61.5111902 26.1700121,61.076154 L0.550775542,35.9840187 L26.2838914,10.807092 Z M18.8576387,21.9197962 L4.79341623,35.9840187 L18.8340738,50.0246763 C17.0092083,45.7145315 16,40.9751224 16,36 C16,31.0035037 17.0178984,26.2447503 18.8576387,21.9197962 Z M85.3407728,22.3957252 C87.0551455,26.59291 88,31.1861137 88,36 C88,40.8644602 87.0351882,45.5035765 85.2864855,49.7364282 L99.1746212,35.9840187 L85.3407728,22.3957252 Z" fill-rule="nonzero"></path>
    <path d="M29.5593166,45.9062281 C29.2223649,45.1494222 29.562724,44.2627566 30.3195298,43.9258049 C31.0763357,43.5888532 31.9630013,43.9292123 32.299953,44.6860181 C37.1295935,55.5335685 49.8384678,60.4120482 60.6860181,55.5824076 C71.5335685,50.7527671 76.4120482,38.0438928 71.5824076,27.1963425 C69.2310134,21.9150245 64.9364397,17.8999757 59.6460912,15.8692011 C54.3557427,13.8384266 48.4776605,13.9485587 43.1963425,16.299953 C41.3005713,17.1440047 39.5615416,18.2396499 38.0120191,19.5556247 C35.2649613,21.8886397 33.1582547,24.8781699 31.8692011,28.2362694 C31.5723194,29.0096727 30.7046819,29.3959698 29.9312786,29.0990881 C29.1578752,28.8022064 28.7715781,27.9345689 29.0684599,27.1611655 C30.5367045,23.3362574 32.9375295,19.9293572 36.0700329,17.2689919 C37.836742,15.7685653 39.8186998,14.5198675 41.9761325,13.5593166 C47.9917837,10.8809762 54.6954074,10.7553767 60.7211951,13.0684599 C66.7469827,15.381543 71.6447036,19.9604814 74.323044,25.9761325 C79.8265879,38.3372945 74.2673901,52.8195001 61.9062281,58.323044 C49.5450661,63.8265879 35.0628605,58.2673901 29.5593166,45.9062281 Z M49.8832168,47.4365109 C43.3202974,46.5141527 38.747719,40.4461363 39.6700772,33.8832168 C40.5924354,27.3202974 46.6604518,22.747719 53.2233712,23.6700772 C59.7862907,24.5924354 64.358869,30.6604518 63.4365109,37.2233712 C62.5141527,43.7862907 56.4461363,48.358869 49.8832168,47.4365109 Z" fill-rule="nonzero"></path>
  </g>
</symbol>
<symbol id="icon-rle" viewBox="0 0 104 104">
  <title>RLE</title>
  <g class="path1" transform="translate(0, 15)">
    <path d="M50.5,9 C50.5,8.17157288 51.1715729,7.5 52,7.5 C52.8284271,7.5 53.5,8.17157288 53.5,9 L53.5,17 C53.5,17.8284271 52.8284271,18.5 52,18.5 C51.1715729,18.5 50.5,17.8284271 50.5,17 L50.5,9 Z M50.5,55 C50.5,54.1715729 51.1715729,53.5 52,53.5 C52.8284271,53.5 53.5,54.1715729 53.5,55 L53.5,63 C53.5,63.8284271 52.8284271,64.5 52,64.5 C51.1715729,64.5 50.5,63.8284271 50.5,63 L50.5,55 Z M79,34.5 C79.8284271,34.5 80.5,35.1715729 80.5,36 C80.5,36.8284271 79.8284271,37.5 79,37.5 L71,37.5 C70.1715729,37.5 69.5,36.8284271 69.5,36 C69.5,35.1715729 70.1715729,34.5 71,34.5 L79,34.5 Z M33,34.5 C33.8284271,34.5 34.5,35.1715729 34.5,36 C34.5,36.8284271 33.8284271,37.5 33,37.5 L25,37.5 C24.1715729,37.5 23.5,36.8284271 23.5,36 C23.5,35.1715729 24.1715729,34.5 25,34.5 L33,34.5 Z M52,48 C45.372583,48 40,42.627417 40,36 C40,29.372583 45.372583,24 52,24 C58.627417,24 64,29.372583 64,36 C64,42.627417 58.627417,48 52,48 Z" fill-rule="nonzero"></path>
    <path d="M52,69 C70.2253967,69 85,54.2253967 85,36 C85,17.7746033 70.2253967,3 52,3 C33.7746033,3 19,17.7746033 19,36 C19,54.2253967 33.7746033,69 52,69 Z M26.2838939,10.8070895 C32.8181104,4.13802844 41.925811,0 52,0 C62.3037996,0 71.5965525,4.32880572 78.1588596,11.2670181 L103.417262,35.9840187 L76.8181152,62.1544189 L76.8399519,62.0572717 C70.3795991,68.2176493 61.6315072,72 52,72 C42.5644238,72 33.9766864,68.3699707 27.5571399,62.430264 L27.5590363,62.4365997 L27.4695083,62.3489137 C27.0257422,61.9355902 26.59243,61.5111902 26.1700121,61.076154 L0.550775542,35.9840187 L26.2838914,10.807092 Z M18.8576387,21.9197962 L4.79341623,35.9840187 L18.8340738,50.0246763 C17.0092083,45.7145315 16,40.9751224 16,36 C16,31.0035037 17.0178984,26.2447503 18.8576387,21.9197962 Z M85.3407728,22.3957252 C87.0551455,26.59291 88,31.1861137 88,36 C88,40.8644602 87.0351882,45.5035765 85.2864855,49.7364282 L99.1746212,35.9840187 L85.3407728,22.3957252 Z" fill-rule="nonzero"></path>
  </g>
</symbol>
<symbol id="icon-prk" viewBox="0 0 104 104">
  <title>PRK</title>
  <g class="path1" transform="translate(0, 15)">
    <path d="M50.9771469,60.4771469 C50.1487198,60.4771469 49.4771469,59.805574 49.4771469,58.9771469 C49.4771469,58.1487198 50.1487198,57.4771469 50.9771469,57.4771469 C51.2902391,57.4771469 51.6024901,57.4704645 51.913768,57.4571379 C52.741437,57.4217032 53.4411207,58.0639359 53.4765555,58.8916048 C53.5119902,59.7192738 52.8697575,60.4189576 52.0420885,60.4543923 C51.6880656,60.469549 51.3330313,60.4771469 50.9771469,60.4771469 Z M63.2203415,57.2031299 C62.5030956,57.6176777 61.5855955,57.3722924 61.1710478,56.6550465 C60.7565,55.9378006 61.0018853,55.0203006 61.7191312,54.6057528 C61.9890589,54.4497422 62.2555633,54.2878688 62.5184588,54.1202607 C63.2169964,53.6749105 64.1443006,53.8801595 64.5896508,54.5786971 C65.0350009,55.2772347 64.8297519,56.2045389 64.1312143,56.649889 C63.8316511,56.8408745 63.5279567,57.025337 63.2203415,57.2031299 Z M72.1869179,48.2483484 C71.7714223,48.9650456 70.8535986,49.2092177 70.1369014,48.793722 C69.4202043,48.3782263 69.1760322,47.4604026 69.5915279,46.7437054 C69.7478236,46.4741078 69.8982378,46.2011321 70.0426508,45.9249634 C70.4265318,45.190847 71.3328478,44.9069252 72.0669641,45.2908062 C72.8010805,45.6746872 73.0850024,46.5810032 72.7011213,47.3151196 C72.5365042,47.6299258 72.3650573,47.9410722 72.1869179,48.2483484 Z M75.4769259,35.8720361 C75.48041,36.7004559 74.8116674,37.3748473 73.9832476,37.3783313 C73.1548278,37.3818154 72.4804365,36.7130728 72.4769524,35.884653 C72.4756374,35.5719762 72.4676544,35.2601556 72.4530419,34.9493234 C72.4141396,34.1218102 73.0534351,33.4194417 73.8809483,33.3805394 C74.7084615,33.3416371 75.41083,33.9809326 75.4497323,34.8084458 C75.4663532,35.1619987 75.475431,35.5165826 75.4769259,35.8720361 Z M72.1497276,23.6420177 C72.5673868,24.3574562 72.3259889,25.2760134 71.6105504,25.6936726 C70.8951119,26.1113318 69.9765547,25.869934 69.5588955,25.1544954 C69.4017209,24.8852598 69.2386994,24.6194707 69.0699599,24.3573135 C68.6215874,23.660712 68.8228166,22.7325272 69.519418,22.2841547 C70.2160195,21.8357821 71.1442043,22.0370113 71.5925768,22.7336127 C71.7848466,23.0323273 71.9706127,23.335199 72.1497276,23.6420177 Z M63.1562374,14.7142427 C63.8747331,15.1266206 64.1228905,16.0433747 63.7105126,16.7618704 C63.2981348,17.480366 62.3813806,17.7285235 61.662885,17.3161456 C61.3927293,17.1610908 61.119222,17.0119272 60.8425477,16.8687738 C60.1067741,16.4880788 59.818926,15.5830022 60.199621,14.8472285 C60.5803161,14.1114549 61.4853927,13.8236068 62.2211663,14.2043019 C62.5365568,14.3674874 62.8483173,14.5375131 63.1562374,14.7142427 Z M50.7657888,11.4780408 C51.5941862,11.4710318 52.2714169,12.1368988 52.2784258,12.9652963 C52.2854348,13.7936938 51.6195678,14.4709245 50.7911703,14.4779334 C50.4782112,14.4805813 50.1661276,14.4899127 49.8550527,14.5058885 C49.027716,14.5483779 48.3225825,13.9121335 48.280093,13.0847967 C48.2376036,12.2574599 48.8738481,11.5523264 49.7011848,11.509837 C50.055051,11.4916635 50.4099732,11.4810512 50.7657888,11.4780408 Z M38.5503374,14.8583546 C39.2639559,14.4375931 40.1835525,14.6750006 40.604314,15.3886191 C41.0250754,16.1022375 40.7876679,17.0218341 40.0740495,17.4425956 C39.8055193,17.6009255 39.5404585,17.765086 39.2790524,17.9349471 C38.5843988,18.3863315 37.6553514,18.1891229 37.203967,17.4944692 C36.7525826,16.7998156 36.9497913,15.8707683 37.6444449,15.4193839 C37.9422963,15.2258407 38.2443305,15.0387815 38.5503374,14.8583546 Z M29.6614975,23.89042 C30.0707485,23.1701387 30.9864153,22.9179988 31.7066966,23.3272497 C32.4269779,23.7365007 32.6791178,24.6521675 32.2698668,25.3724488 C32.1159665,25.6433132 31.967974,25.9175068 31.8260074,26.1948448 C31.4485254,26.9322721 30.544713,27.2240654 29.8072858,26.8465834 C29.0698586,26.4691015 28.7780653,25.5652891 29.1555472,24.8278619 C29.317384,24.5117067 29.4860793,24.1991559 29.6614975,23.89042 Z M26.4791334,36.2921834 C26.4686819,35.4638222 27.1317286,34.7838302 27.9600898,34.7733787 C28.788451,34.7629271 29.4684431,35.4259739 29.4788946,36.2543351 C29.482838,36.5668782 29.4934506,36.8785308 29.510693,37.1891595 C29.5566067,38.0163133 28.9232865,38.7240744 28.0961327,38.7699882 C27.2689789,38.8159019 26.5612178,38.1825817 26.5153041,37.3554278 C26.4956879,37.0020343 26.4836173,36.6475652 26.4791334,36.2921834 Z M29.9125278,48.495381 C29.4886733,47.7835953 29.7220877,46.8629771 30.4338733,46.4391226 C31.145659,46.0152681 32.0662773,46.2486824 32.4901318,46.9604681 C32.6496083,47.2282796 32.8148985,47.492599 32.9858716,47.7532413 C33.4402572,48.4459356 33.2470699,49.3758274 32.5543757,49.830213 C31.8616815,50.2845986 30.9317896,50.0914112 30.477404,49.398717 C30.2825985,49.1017432 30.0942567,48.8005613 29.9125278,48.495381 Z M38.983035,57.3451525 C38.2609809,56.9390375 38.0048616,56.0244758 38.4109765,55.3024217 C38.8170914,54.5803676 39.7316531,54.3242482 40.4537073,54.7303632 C40.7252372,54.8830835 41.0000729,55.0298813 41.2780296,55.1706395 C42.0170948,55.5449043 42.3128238,56.4474366 41.938559,57.1865018 C41.5642941,57.925567 40.6617618,58.221296 39.9226966,57.8470312 C39.6058282,57.686568 39.2925375,57.5192303 38.983035,57.3451525 Z M49.8734849,48.5562201 C42.7636555,47.5569987 37.810029,40.9833143 38.8092503,33.8734849 C39.8084717,26.7636555 46.3821561,21.810029 53.4919855,22.8092503 C60.6018149,23.8084717 65.5554415,30.3821561 64.5562201,37.4919855 C63.5569987,44.6018149 56.9833143,49.5554415 49.8734849,48.5562201 Z" fill-rule="nonzero"></path>
    <path d="M52,69 C70.2253967,69 85,54.2253967 85,36 C85,17.7746033 70.2253967,3 52,3 C33.7746033,3 19,17.7746033 19,36 C19,54.2253967 33.7746033,69 52,69 Z M26.2838939,10.8070895 C32.8181104,4.13802844 41.925811,0 52,0 C62.3037996,0 71.5965525,4.32880572 78.1588596,11.2670181 L103.417262,35.9840187 L76.8181152,62.1544189 L76.8399519,62.0572717 C70.3795991,68.2176493 61.6315072,72 52,72 C42.5644238,72 33.9766864,68.3699707 27.5571399,62.430264 L27.5590363,62.4365997 L27.4695083,62.3489137 C27.0257422,61.9355902 26.59243,61.5111902 26.1700121,61.076154 L0.550775542,35.9840187 L26.2838914,10.807092 Z M18.8576387,21.9197962 L4.79341623,35.9840187 L18.8340738,50.0246763 C17.0092083,45.7145315 16,40.9751224 16,36 C16,31.0035037 17.0178984,26.2447503 18.8576387,21.9197962 Z M85.3407728,22.3957252 C87.0551455,26.59291 88,31.1861137 88,36 C88,40.8644602 87.0351882,45.5035765 85.2864855,49.7364282 L99.1746212,35.9840187 L85.3407728,22.3957252 Z" fill-rule="nonzero"></path>
  </g>
</symbol>
<symbol id="icon-triangle-left" viewBox="0 0 45 45">
<title>Triangle Left</title>
<polygon transform="translate(23.000000, 23.000000) rotate(-90.000000) translate(-23.000000, -23.000000) " points="23 19 29 27 17 27"></polygon>
</symbol>
<symbol id="icon-triangle-right" viewBox="0 0 45 45">
<title>Triangle Right</title>
<polygon transform="translate(23.000000, 23.000000) rotate(90.000000) translate(-23.000000, -23.000000) " points="23 19 29 27 17 27"></polygon>
</symbol>
<symbol id="icon-triangle-down" viewBox="0 0 45 45">
<title>Triangle Down</title>
<polygon transform="translate(23.000000, 23.000000) rotate(180.000000) translate(-23.000000, -23.000000) " points="23 19 29 27 17 27"></polygon>
</symbol>
<symbol id="icon-triangle-up" viewBox="0 0 45 45">
<title>Triangle Up</title>
<polygon transform="translate(23.000000, 23.000000) translate(-23.000000, -23.000000) " points="23 19 29 27 17 27"></polygon>
</symbol>
<symbol id="icon-download" viewBox="0 0 471 471">
  <title>Download</title>
  <path d="M457.7,230.15c-7.5,0-13.5,6-13.5,13.5v122.8c0,33.4-27.2,60.5-60.5,60.5H87.5c-33.4,0-60.5-27.2-60.5-60.5v-124.8 c0-7.5-6-13.5-13.5-13.5s-13.5,6-13.5,13.5v124.8c0,48.3,39.3,87.5,87.5,87.5h296.2c48.3,0,87.5-39.3,87.5-87.5v-122.8 C471.2,236.25,465.2,230.15,457.7,230.15z"></path>
  <path d="M226.1,346.75c2.6,2.6,6.1,4,9.5,4s6.9-1.3,9.5-4l85.8-85.8c5.3-5.3,5.3-13.8,0-19.1c-5.3-5.3-13.8-5.3-19.1,0l-62.7,62.8 V30.75c0-7.5-6-13.5-13.5-13.5s-13.5,6-13.5,13.5v273.9l-62.8-62.8c-5.3-5.3-13.8-5.3-19.1,0c-5.3,5.3-5.3,13.8,0,19.1 L226.1,346.75z"></path>
</symbol>
</defs>
</svg>